<svg width="30" height="30" fill="none" xmlns="http://www.w3.org/2000/svg"><path d="M14.99 1.25A13.268 13.268 0 0 0 1.24 14.625a13.076 13.076 0 0 0 4.267 9.832l.065 2.113a2.25 2.25 0 0 0 3.156 1.99l2.401-1.06c1.26.335 2.557.503 3.86.5a13.266 13.266 0 0 0 13.752-13.375A13.27 13.27 0 0 0 14.989 1.25Zm0 24.25a12.326 12.326 0 0 1-3.293-.438 2.25 2.25 0 0 0-1.495.115l-2.143.945-.056-1.866a2.263 2.263 0 0 0-.752-1.593 10.61 10.61 0 0 1-3.513-8.038A10.825 10.825 0 0 1 14.988 3.75a10.881 10.881 0 1 1 0 21.75m4.669-14.769-2.891 3.444-4.184-2.57a1.248 1.248 0 0 0-1.611.262l-3.813 4.546a1.25 1.25 0 1 0 1.913 1.606l3.123-3.719 4.184 2.57a1.247 1.247 0 0 0 1.611-.262l3.583-4.27a1.25 1.25 0 1 0-1.915-1.607Z" fill="#111"/></svg>