<svg width="30" height="30" fill="none" xmlns="http://www.w3.org/2000/svg"><path d="M27.83 3.035a2.56 2.56 0 0 0-2.597-.405L2.832 11.674a2.554 2.554 0 0 0 .13 4.772l4.531 1.576 2.525 8.353c.035.111.085.217.149.315.01.015.024.025.034.041a1.236 1.236 0 0 0 .35.331c.12.079.25.136.388.17l.017.002.007.003c.084.017.169.026.254.025l.022-.003c.128-.003.255-.024.377-.065.028-.01.052-.025.08-.038.09-.037.176-.085.256-.142l.19-.162 3.377-3.728 5.038 3.902c.443.345.989.533 1.551.534a2.568 2.568 0 0 0 2.51-2.041l4.079-20.022a2.538 2.538 0 0 0-.866-2.462ZM11.713 18.42a1.243 1.243 0 0 0-.34.632l-.388 1.88-.98-3.24 5.082-2.647-3.374 3.375Zm10.377 6.63-5.953-4.613a1.251 1.251 0 0 0-1.692.15l-1.082 1.194.382-1.859 8.854-8.853a1.25 1.25 0 0 0-1.461-1.992L8.43 15.692 3.774 13.99 26.248 5l-4.159 20.05Z" fill="#111"/></svg>