<svg width="30" height="30" fill="none" xmlns="http://www.w3.org/2000/svg"><path d="M18.925 14.766a6.344 6.344 0 0 0-1.615-.741c-.35-.106-.737-.21-1.137-.309a24.06 24.06 0 0 0-1.278-.31 11.652 11.652 0 0 1-1.795-.53 1.87 1.87 0 0 1-.77-.558 1.054 1.054 0 0 1-.2-.708c0-.27.09-.533.257-.746.233-.273.535-.478.875-.594a5.014 5.014 0 0 1 1.777-.27c.468-.008.933.054 1.383.182.298.084.578.22.828.403.162.115.3.261.407.429a1.251 1.251 0 1 0 2.2-1.185 3.934 3.934 0 0 0-1.045-1.198 5.007 5.007 0 0 0-1.65-.836A7.21 7.21 0 0 0 15.04 7.5a7.454 7.454 0 0 0-2.68.437 4.44 4.44 0 0 0-1.972 1.428 3.721 3.721 0 0 0-.755 2.246c-.02.808.235 1.598.725 2.24a4.376 4.376 0 0 0 1.797 1.34c.533.205 1.08.376 1.634.51.01.004.018.013.028.015.24.073.622.169 1.175.288.216.047.418.098.62.15.02.005.05.011.068.017l.023.003c.31.08.609.161.882.245.337.098.658.243.954.43.185.116.34.273.454.46.11.227.16.479.147.731a1.44 1.44 0 0 1-.267.915 2.203 2.203 0 0 1-1.003.731 4.733 4.733 0 0 1-1.858.315 4.611 4.611 0 0 1-2.13-.43 2.196 2.196 0 0 1-.77-.684 1.274 1.274 0 0 1-.252-.628 1.25 1.25 0 0 0-2.5 0c.021.737.263 1.452.695 2.05a4.718 4.718 0 0 0 1.678 1.483 7.035 7.035 0 0 0 3.279.71 7.136 7.136 0 0 0 2.817-.507 4.637 4.637 0 0 0 2.081-1.591c.5-.701.757-1.547.73-2.408a3.863 3.863 0 0 0-.468-1.912 3.956 3.956 0 0 0-1.247-1.316m9.027 2.347A13.114 13.114 0 0 0 12.888 2.05 8.124 8.124 0 0 0 2.05 12.887 13.114 13.114 0 0 0 17.113 27.95 8.124 8.124 0 0 0 27.95 17.113m-7.325 9.137c-.948 0-1.881-.24-2.712-.698a1.254 1.254 0 0 0-.846-.132A10.617 10.617 0 0 1 4.58 12.932c.057-.288.01-.588-.132-.846a5.625 5.625 0 0 1 7.64-7.639c.258.143.558.19.847.133A10.615 10.615 0 0 1 25.42 17.067c-.056.29-.01.589.133.847a5.624 5.624 0 0 1-4.928 8.336Z" fill="#111"/></svg>