<svg width="30" height="30" fill="none" xmlns="http://www.w3.org/2000/svg"><path d="M28.74 4.937a1.25 1.25 0 0 0-1.888-1.075 9.35 9.35 0 0 1-2.343.993 6.44 6.44 0 0 0-4.217-1.553 6.54 6.54 0 0 0-6.529 6.329 13.79 13.79 0 0 1-8.517-4.905 1.265 1.265 0 0 0-1.072-.456 1.249 1.249 0 0 0-.98.625 6.595 6.595 0 0 0-.303 5.961l-.003.001a1.302 1.302 0 0 0-.62 1.113 3.8 3.8 0 0 0 .034.548 6.481 6.481 0 0 0 1.96 4.14 1.248 1.248 0 0 0-.082.963 6.505 6.505 0 0 0 2.952 3.652 9.33 9.33 0 0 1-4.487.56 1.25 1.25 0 0 0-.832 2.292 16.178 16.178 0 0 0 8.763 2.576 15.985 15.985 0 0 0 15.581-11.704c.441-1.479.666-3.014.669-4.557l-.002-.25a7.212 7.212 0 0 0 1.915-5.253Zm-4.133 4.015a1.244 1.244 0 0 0-.293.878c.013.206.012.413.012.61a13.532 13.532 0 0 1-.568 3.85 13.357 13.357 0 0 1-13.182 9.912c-1.074 0-2.144-.126-3.188-.376a11.849 11.849 0 0 0 3.678-1.955 1.25 1.25 0 0 0-.753-2.232 4.01 4.01 0 0 1-2.767-1.17c.186-.034.372-.078.556-.13a1.25 1.25 0 0 0-.1-2.43 3.997 3.997 0 0 1-2.813-2.157c.226.031.454.05.682.058a1.276 1.276 0 0 0 1.23-.87 1.25 1.25 0 0 0-.5-1.421 3.994 3.994 0 0 1-1.774-3.59 16.267 16.267 0 0 0 10.262 4.35 1.277 1.277 0 0 0 1.022-.45 1.25 1.25 0 0 0 .257-1.083 3.95 3.95 0 0 1-.108-.911 4.037 4.037 0 0 1 5.631-3.702c.505.219.958.54 1.332.944a1.242 1.242 0 0 0 1.152.373c.513-.1 1.02-.235 1.515-.403a8.35 8.35 0 0 1-1.283 1.905Z" fill="#111"/></svg>