<svg width="30" height="30" fill="none" xmlns="http://www.w3.org/2000/svg"><path d="M20.75 17.5c-.25-.125-1.875-.875-2.125-1s-.5-.125-.75.125-.75 1-1 1.25c-.125.25-.375.25-.625.125-.875-.375-1.75-.875-2.5-1.5A14.389 14.389 0 0 1 12 14.375c-.125-.25 0-.5.125-.625s.25-.375.5-.5c.125-.125.25-.375.25-.5a.38.38 0 0 0 0-.5c-.125-.125-.75-1.625-1-2.25-.125-.875-.375-.875-.625-.875h-.625c-.25 0-.625.25-.75.375-.75.75-1.125 1.625-1.125 2.625.125 1.125.5 2.25 1.25 3.25 1.375 2 3.125 3.625 5.25 4.625.625.25 1.125.5 1.75.625.625.25 1.25.25 2 .125.875-.125 1.625-.75 2.125-1.5.25-.5.25-1 .125-1.5l-.5-.25Zm3.125-11.375a12.448 12.448 0 0 0-17.625 0c-4 4-4.75 10.125-2 15L2.5 27.5l6.625-1.75C11 26.75 13 27.25 15 27.25c6.875 0 12.375-5.5 12.375-12.375.125-3.25-1.25-6.375-3.5-8.75Zm-3.375 17.5c-1.625 1-3.5 1.625-5.5 1.625-1.875 0-3.625-.5-5.25-1.375l-.375-.25-3.875 1 1-3.75-.25-.375c-3-5-1.5-11.25 3.375-14.375s11.125-1.5 14.125 3.25c3 4.875 1.625 11.25-3.25 14.25Z" fill="#111"/></svg>