<svg width="552" height="75" fill="none" xmlns="http://www.w3.org/2000/svg"><path d="m20.516 7.719.609-.188c.438 0 .906-.265 1.406-.797.125 0 .297-.062.516-.187h.75c.469-.469.984-.719 1.547-.75a16.798 16.798 0 0 0 2.015-.375c.813-.188 1.422-.297 1.828-.328.438-.032.766-.094.985-.188.219-.125.36-.187.422-.187l1.172.187c.843 0 1.422.172 1.734.516.313.312.875.781 1.688 1.406.843.594 1.265 1.906 1.265 3.938v.093l-.187 1.079.093.75c0 .187-.125.421-.375.703l-.187.562c0 .625-.203 1.235-.61 1.828-.374.563-.593 1.078-.656 1.547l-.562.75-.75 1.828-1.172 1.547-.844 1.735-.984 1.125-.094.28c-.219.595-.531.891-.938.891v.844c0 .313-.218.828-.656 1.547-.406.688-.64 1.234-.703 1.64l-.469.844c.313.25.688.375 1.125.375.094 0 .485-.156 1.172-.468.688-.313 1.235-.47 1.64-.47l4.407-.89c.094 0 .281.11.563.328.187-.343.312-.515.375-.515l1.172-.469c.437.125.687.188.75.188 1.03 0 2.156-.25 3.374-.75 1.97-.532 3.891-.797 5.766-.797l3.844-.844c.219-.25.406-.672.562-1.266.188-.625.438-1.031.75-1.218.344-.188.578-.438.703-.75.126-.344.344-.735.657-1.172l.468-1.266 1.172-2.11.282-1.03c.125-.407.578-1.047 1.359-1.922v-.282c0-.656.281-1.11.844-1.36l.093-.187V12.22c0-.406.36-.688 1.079-.844l.375-.61-.094-1.5c0-.343.125-.64.375-.89s.39-.5.422-.75c.031-.25.187-.672.468-1.266l.188-1.03a.99.99 0 0 1 .14-.516c.094-.188.141-.594.141-1.22 0-2.124.985-3.187 2.953-3.187.594 0 1.266.406 2.016 1.219.781.781 1.172 1.469 1.172 2.063 0 1.843-.156 3.124-.469 3.843-.062.125-.203.5-.422 1.125-.187.594-.75 1.688-1.687 3.281l-.516.844h-.656l-.094.094.188 1.266-.47.468v.61c-.124.125-.233.328-.327.61-.094.28-.328.64-.703 1.077-.344.407-.516.672-.516.797v.563l-.188.375c-.593 1.218-.906 1.968-.937 2.25-.031.25-.203.562-.516.937 0 .5-.343 1.11-1.03 1.828.062.063.093.125.093.188l-.375 1.36c.125.062 1.422.093 3.89.093l.891-.094 1.875.375c.219 0 .453.031.703.094l.188.562c.969.063 1.453.422 1.453 1.078 0 1-.36 1.891-1.078 2.672-.719.782-1.547 1.172-2.485 1.172-.25 0-.546-.11-.89-.328-.344-.25-.625-.375-.844-.375l-1.219.188-1.172-.375-.75.093-.703-.093-.75.093-.562-.093c-.375 0-.766.156-1.172.468h-.844c-.062 0-.531.922-1.406 2.766-.875 1.813-1.5 3.172-1.875 4.078-.063.125-.281.281-.656.469-.25 1.094-.735 1.734-1.453 1.922l.093.656a3.499 3.499 0 0 0-.328 1.172c-.031.375-.312.766-.844 1.172-.5.375-.797.937-.89 1.687-.094.75-.344 1.594-.75 2.532-.407.937-.688 1.5-.844 1.687-.125.156-.39.531-.797 1.125-.375.563-.734.984-1.078 1.266-.344.28-.516.484-.516.609l.282.656c-.157 1.094-.47 1.64-.938 1.64v.563c0 .344-.36.672-1.078.985.188.375.281.625.281.75 0 .531-.125.922-.375 1.172-.437.062-.656.187-.656.375l.281.562c.063.063.094.188.094.375 0 .156-.156.938-.469 2.344.625.406.938.844.938 1.312l-.094.61c.469.437.703.687.703.75l-.328 1.078c-.094.406-.375.75-.844 1.031-.468.25-1.14.375-2.015.375-.782 0-1.313-.11-1.594-.328a6.51 6.51 0 0 0-1.078-.656c-.407-.219-.64-.438-.703-.656-.063-.25-.313-.657-.75-1.22-.438-.593-.657-1.359-.657-2.296v-.61l-.093-1.312v-.422l.28-2.016-.187-1.687c0-.125.063-.297.188-.516.125-.25.219-.468.281-.656-.312-1.281-.469-2.047-.469-2.297l-1.265-4.687c-.032-.157.156-.485.562-.985-1-.187-1.578-.437-1.734-.75-.125-.343-.25-.562-.375-.656-.125-.094-.25-.266-.375-.516l-5.766-2.765A4.278 4.278 0 0 1 26 41c-.125-.25-.422-.406-.89-.469-.438-.062-.72-.156-.844-.281l-.47-.375-2.108-.188-.985.563c0 .25-.203.625-.61 1.125-.374.5-.78 1.313-1.218 2.438-.281.75-.625 1.124-1.031 1.124l-.188.422v1.125c0 .313-.172.578-.515.797a9.878 9.878 0 0 0-.844.563c.062.062.125.25.187.562v.188l-.375.703c-.062.062-.125.344-.187.844-.063.5-.485 1.047-1.266 1.64l-.656.75v.985l-.61 1.734c-.406 1.344-.843 2.36-1.312 3.047-.375.062-.562.219-.562.469l.187.609c.063.063.094.156.094.281 0 .563-.266.86-.797.89-.5.032-.781.173-.844.423.281.906.422 1.375.422 1.406 0 .281-.265.531-.797.75h-.094l.282 1.781c-.719.688-1.078 1.266-1.078 1.735.093.062.171.296.234.703v.375c0 1.219-.516 1.828-1.547 1.828-.406 0-1.266-.734-2.578-2.203-1.281-1.469-1.922-2.985-1.922-4.547l.328-2.25c.219-1.625.453-2.61.703-2.953.25-.344.47-.782.657-1.313.218-.562.406-.922.562-1.078.156-.187.328-.469.516-.844l.468-.75.188-.797.375-.843c.719-1.157 1.047-1.766.984-1.828 0-.313.22-.672.657-1.078.468-.407.703-.922.703-1.547 0-.563.406-1.25 1.219-2.063l.28-.516c1.438-2.937 2.438-4.593 3-4.968-.25-.719-.468-1.078-.655-1.078-.157 0-.36.047-.61.14a2.88 2.88 0 0 1-.703.094c-.219 0-.5.047-.844.14-.312.094-.812.141-1.5.141-.25 0-.61.063-1.078.188h-.094c-.125 0-.375-.11-.75-.328-.343-.25-.515-.407-.515-.47 0-.687.547-1.421 1.64-2.202 1.125-.782 2.47-1.39 4.032-1.828.28 0 .64-.203 1.078-.61.437-.406 1.14-.61 2.11-.61l.655-.374.47.094c.718-.907 1.296-1.75 1.733-2.532v-.562c0-.125.329-.578.985-1.36.687-.812 1.062-1.28 1.125-1.406v-.797c.562-.593.969-1.234 1.219-1.922.25-.718.812-1.515 1.687-2.39l.656-1.36c.72-1.343 1.407-2.484 2.063-3.421.687-.97 1.156-1.844 1.406-2.625l.75-.938.516-1.36c.593-1.343 1.031-2.171 1.312-2.484-.062-.968-.25-1.453-.562-1.453l-3.563.703-.843-.093c-.72.375-1.407.609-2.063.703-.625.094-1.344.5-2.156 1.219l-.985-.141c-.218 0-.5.125-.843.375-.313.25-1.188.61-2.625 1.078-.125.438-.25.703-.375.797h-1.032l-1.546 1.312c-.907.532-1.563.985-1.97 1.36-.405.375-.75.562-1.03.562-.532 0-1.641 1.407-3.329 4.219l-.609.422-.469.75a8.12 8.12 0 0 1-.937.187c-.594.657-1.078.985-1.453.985-.282 0-.875-.235-1.782-.703C1.36 21.89.922 21 .922 19.719c0-1.407 2.062-3.14 6.187-5.203l1.125-.75a15.96 15.96 0 0 1 1.36-.188c.937-.812 1.86-1.406 2.765-1.781.907-.406 1.563-.766 1.97-1.078.405-.344 1.093-.656 2.062-.938.968-.281 1.609-.625 1.922-1.031.312-.438.5-.656.562-.656l.984.094.657-.47Zm9.609 32.437.656.563a.93.93 0 0 1 .422-.094c.5 0 1.406.438 2.719 1.313 1.312.843 2.062 1.453 2.25 1.828.187.343.453.843.797 1.5.375.625.703 1.422.984 2.39.281.969.547 1.578.797 1.828.219-.406.422-.89.61-1.453L41.093 44c0-.063.156-.281.468-.656l.376-.703.468-.094c-.062-.125-.093-.313-.093-.563 0-.375.39-.953 1.171-1.734l.47-1.453 1.171-1.5c.125-.563.375-1.156.75-1.781s.594-.938.656-.938l.375-.187c.219-1.157.516-1.922.89-2.297l.095-.282a.72.72 0 0 1-.282.094c-.062-.062-.25-.125-.562-.187h-.234c-.313 0-.72.093-1.22.281h-.468c-.063 0-.234-.063-.516-.188h-.187l-1.313.563h-.14L42.5 32c-.375.063-.75.094-1.125.094-.125 0-.438.093-.938.281a3.651 3.651 0 0 1-1.359.281l-2.25.282-1.125-.094h-1.078l-.938-.375c-.593.718-1.265 1.078-2.015 1.078l-.375.094h-.094l-.984-.282c-.188 0-.313-.109-.375-.328-.063-.25-.157-.375-.282-.375-.406.907-.984 1.407-1.734 1.5-.719.094-1.328.297-1.828.61-.781.218-1.297.328-1.547.328-.062 0-.187-.047-.375-.14-1.344 2.093-2.015 3.187-2.015 3.28 0 .188.484.282 1.453.282l.656.28c.187.157.531.282 1.031.376.531.094 1.078.234 1.64.422l.704-.188c.062 0 .36.078.89.235l1.688.515ZM13.156 37.11c.25.063.594.094 1.031.094.25 0 .376-.11.376-.328 0-.188-.094-.281-.282-.281-.5 0-.875.172-1.125.515Zm61.125-12.515L74 22.766v-.282c0-1.468.5-2.28 1.5-2.437.219-.031.875-.235 1.969-.61.562.125 1.14.625 1.734 1.5.625.844.938 1.594.938 2.25 0 .063-.047.204-.141.422-.094.22-.156.641-.188 1.266-.03.594-.343 1.125-.937 1.594-.563.437-1.172.656-1.828.656-.438 0-1-.297-1.688-.89-.656-.626-1.015-1.172-1.078-1.641ZM54.031 48.03l.75-.656h.282c.218 0 .546-.234.984-.703l.469-.188c.625-.937 1.172-1.484 1.64-1.64l.75-.563a1.63 1.63 0 0 1 .516-.328c.25-.094.625-.39 1.125-.89.531-.532.953-.797 1.266-.797.312 0 .562.03.75.093.187-.375.562-.734 1.124-1.078a4.963 4.963 0 0 0 1.36-1.312l.61-.282a5 5 0 0 0 1.312-.937c.406-.406.922-.61 1.547-.61.906 0 1.843.47 2.812 1.407 1 .906 1.5 1.781 1.5 2.625l-.797 3.656c-.531 2.688-1.125 4.094-1.781 4.219l-.188.984c-.437.313-.656.563-.656.75l.281 1.125c0 .157-.171.39-.515.703-.063 0-.094.094-.094.282v1.922c0 .343-.219.624-.656.843.062.063.156.125.281.188.188-.188.61-.282 1.266-.282l.75.094 1.031-1.031c.219-.063.516-.203.89-.422.407-.25 1.079-.562 2.016-.937l6.14-4.688c.845-.844 1.485-1.266 1.923-1.266.469 0 .703.297.703.891 0 .688-.14 1.266-.422 1.734-.25.438-.484.985-.703 1.641-.219.625-.484 1.063-.797 1.313a3.59 3.59 0 0 0-.703.843c-.188.282-.703.703-1.547 1.266a15.25 15.25 0 0 0-2.11 1.734c-.562.563-1.03.97-1.406 1.22l-2.015 1.452-.281.469c-.063.063-.36.203-.891.422-.5.187-.953.437-1.36.75l-.843.469c-.188.125-.5.203-.938.234-.406.031-.765.219-1.078.563-.312.312-.562.468-.75.468l-.703-.093-.938.28c-.53 0-1.187-.312-1.968-.937-.75-.656-1.125-1.343-1.125-2.062v-.282l.093-.656c0-.125-.093-.437-.28-.937-.188-.532-.282-.828-.282-.89l.094-.657-.094-.281c0-.844.063-1.375.188-1.594.124-.219.218-.516.28-.89.063-.407.126-.735.188-.985l.235-1.172c.125-.375.28-.625.468-.75.063-.25.188-.672.375-1.266l.188-.843.469-.657c.25-.25.39-.578.421-.984.063-.438.235-.89.516-1.36.281-.468.422-.75.422-.843 0-.375-.188-.563-.563-.563-.124 0-.515.25-1.171.75l-.844-.28c-.063 0-.234.155-.516.468 0 .125-.14.219-.422.281-.28.063-.547.297-.797.703l-.374.094-.61-.281h-.187c-.313 0-.5.343-.563 1.031-.344.5-.797.828-1.36.984l-1.03.282c-.344.125-.594.406-.75.843-.157.438-.47.844-.938 1.22-.469.343-.781.515-.938.515-.874 0-1.312-.485-1.312-1.453l.375-2.203-.094-.282Zm34.922 14.766.281-.563c.125-.25.235-.422.329-.515.093-.094.328-.532.703-1.313.406-.812 1.125-1.297 2.156-1.453.312-.312.75-.469 1.312-.469.75 0 1.641.72 2.672 2.157 1.031 1.406 1.547 2.297 1.547 2.672 0 .5-.344 1.078-1.031 1.734 0 1-.313 1.875-.938 2.625-.593.719-.968 1.25-1.125 1.594-.156.375-.359.656-.609.843 0 .063-.547.797-1.64 2.204-1.094 1.437-1.891 2.156-2.391 2.156l-2.016-.703c-.406-.063-.61-.22-.61-.47 0-.843.438-1.671 1.313-2.484.875-.78 1.375-1.593 1.5-2.437-1.281-1.281-1.922-2.75-1.922-4.406 0-.125.157-.516.47-1.172Zm69.141-59.11.281-.468c.219-.406.563-.61 1.031-.61.063 0 .297.063.703.188-.062-.063-.093-.156-.093-.281 0-.375.187-.563.562-.563h.188c.062 0 .422-.094 1.078-.281l3.234-.375c.781 0 1.75.187 2.906.562h.657l1.265.375c.563.532.969.829 1.219.891.25.063.375.156.375.281.188.313.578.688 1.172 1.125l1.359 1.453.188.375c.25.47.547.97.89 1.5.375.5.563 1.313.563 2.438l-.234.562c.343.157.515.297.515.422l-.281 1.688v1.453c0 .594-.094 1.11-.281 1.547a4.276 4.276 0 0 0-.235 1.453c0 .125-.218.469-.656 1.031v.094l.188 1.265c0 .125-.141.329-.422.61-.282.281-.422.5-.422.656 0 .656-.172 1.156-.516 1.5-.031.656-.406 1.485-1.125 2.485-.719.968-1.172 1.796-1.359 2.484-.156.687-.578 1.562-1.266 2.625a47.33 47.33 0 0 0-.516 1.687c-.093.344-.437.782-1.031 1.313-.562.5-.843 1.172-.843 2.016-.188.624-.626 1.093-1.313 1.406l-1.078.984v.563c0 .656-.375 1.359-1.125 2.109l-1.594 3.281c-.312.625-.719.938-1.219.938l-.187.187c-.094.907-.25 1.5-.469 1.782-.219.28-.453.609-.703.984-.25.375-.484.719-.703 1.031-.219.281-.453.75-.703 1.406a4.844 4.844 0 0 1-1.078 1.641l-.469 1.031v.375c0 .844-.281 1.266-.844 1.266-.094 0-.265-.031-.515-.094h-.094c.187.656.281 1.14.281 1.453 0 .188-.437 1.172-1.313 2.953l-.187.703v.75c-.469.5-.781.954-.937 1.36-.157.375-.407.64-.75.797-.344.156-.516.265-.516.328l.187.281v.188l-.328 1.453.235 1.734c0 .125-.141.453-.422.984 1.031.75 1.547 1.547 1.547 2.391 0 1.344-.547 2.14-1.641 2.39h-.281l-.938.094c-1.093 0-1.859-.156-2.297-.468-.437-.313-.984-.797-1.64-1.453l-.61-.375c-.187-.125-.343-.36-.468-.704l-.469-.468c-.656-.813-.985-2.125-.985-3.938 0-.187.141-.406.422-.656l.094-.281-.094-.89c0-.157.344-1.173 1.032-3.048l1.359-2.812c.75-1.532 1.266-2.422 1.547-2.672.094-.5.25-1.078.469-1.734l.281-.188c.062-.438.297-.906.703-1.406a4.82 4.82 0 0 0 .937-1.875c.438-.063.657-.157.657-.282 0-.062-.031-.187-.094-.374v-.188c0-.563.219-1.047.656-1.453a4.028 4.028 0 0 0 1.031-1.5c.219-.594.469-1.031.75-1.313.313-.28.594-.78.844-1.5.219-.218.532-.375.938-.468.406-.125.609-.282.609-.47 0-.062-.141-.358-.422-.89.844-1.937 1.75-3.437 2.719-4.5.125-.187.25-.484.375-.89.125-.438.375-.75.75-.938.344-1.062.75-1.937 1.219-2.625.468-.687.89-1.437 1.265-2.25.407-.844.891-1.265 1.453-1.265l.188-.282-.094-.984c0-.031.125-.328.375-.89.281-.563.531-.876.75-.938.219-.063.485-.313.797-.75l-.375-.75c.125-.094.235-.25.328-.469.094-.219.203-.328.328-.328.782-.438 1.172-.906 1.172-1.406 0-.125-.031-.328-.093-.61v-.187c0-.188.281-.594.843-1.219.594-.656.891-1.438.891-2.344.062-.437.25-.843.562-1.218.313-.376.469-.688.469-.938 0-.219.094-.453.281-.703l-.187-1.172c.594-.906.891-1.734.891-2.484 0-.063-.079-.22-.235-.47-.156-.25-.234-.577-.234-.983 0-.188-.172-.438-.516-.75l-.187-.47c-.969-.343-1.594-.655-1.875-.937-.282-.281-1.063-.422-2.344-.422l-.844.188-.703-.188c-.188.125-.344.188-.469.188h-.093l-.469-.094c-.531 0-1.281.219-2.25.656-.938.407-1.563.61-1.875.61-.969 0-1.625.281-1.969.843-.313.532-.563.797-.75.797l-.469-.187h-.094c-.25 0-.468.437-.656 1.312l-.094.188c-1.218.687-2.187 1.39-2.906 2.11l-3.047 3.187c-1.031 1.062-1.593 1.781-1.687 2.156-.094.344-.406.688-.938 1.031-.5.907-.75 1.547-.75 1.922 0 .813-.172 1.375-.515 1.688-.344.28-.516.515-.516.703 0 .125.031.25.094.375.062.125.187.468.375 1.031v.234c0 .375-.125.703-.375.985-.219.281-.328.453-.328.515 0 .094.265.422.797.985.562.562.843.968.843 1.218 0 .844-.375 1.625-1.125 2.344-.718.688-1.484 1.032-2.296 1.032-.719 0-1.297-.172-1.735-.516-.406-.344-.609-1.39-.609-3.14l.094-1.22.421-1.359-.093-1.453c0-.125.296-.656.89-1.594.594-.968.969-1.672 1.125-2.11.563-1.843 1.422-3.265 2.578-4.265.25-.187.375-.406.375-.656 0-.438.188-.86.563-1.266 0-.125.219-.375.656-.75.438-.375.703-.765.797-1.171.125-.438.406-.72.844-.844.468-.125.797-.547.984-1.266a8.414 8.414 0 0 1 2.578-2.11c.469-.874 1.016-1.421 1.641-1.64l1.265-.844.282-.468a2.2 2.2 0 0 1 .75-.47c.312-.155.609-.39.89-.702.875-.438 1.454-.657 1.735-.657h.375Zm36.468 7.876-.374-2.297c-.032-.22.046-.485.234-.797.219-.313.359-.578.422-.797a1.28 1.28 0 0 1 .328-.563c.156-.187.422-.671.797-1.453.406-.812 1.125-1.281 2.156-1.406.313-.313.75-.469 1.313-.469.75 0 1.64.703 2.671 2.11 1.063 1.406 1.594 2.296 1.594 2.671 0 .532-.359 1.11-1.078 1.735 0 1.031-.313 1.922-.937 2.672-.594.719-.985 1.281-1.172 1.687-.188.375-.328.594-.422.656-.094.063-.672.829-1.735 2.297-1.031 1.438-1.843 2.157-2.437 2.157-.094 0-.563-.188-1.406-.563-.813-.375-1.219-.594-1.219-.656 0-.813.437-1.61 1.312-2.39.875-.813 1.375-1.641 1.5-2.485-.156-.063-.453-.453-.89-1.172l-.657-.938Zm19.969 31.406 1.313-.61c.437-.28.859-.687 1.265-1.218l1.641-1.172c.938-.625 1.547-.938 1.828-.938l.75.282c.063 0 .25-.188.563-.563.343-.406.734-.61 1.171-.61.563 0 1.329.422 2.297 1.266.969.844 1.453 1.594 1.453 2.25l-.187 1.594c0 .25.125.953.375 2.11v.374l-.188 1.125.188 1.172-.516 2.297c0 .594.204.89.61.89.531-.5.984-.796 1.359-.89l.656-.656c.25-.25.438-.375.563-.375.125 0 .281-.14.469-.422.218-.313.484-.531.797-.656.312-.125.531-.344.656-.657 1.75-1.906 3.094-3 4.031-3.28.125 0 .328-.157.609-.47.313-.312.563-.5.75-.562l1.032-.797.422.188h.093c.063 0 .313-.157.75-.47.438-.312.75-.468.938-.468 1.187 0 2.156.406 2.906 1.219.781.781 1.172 1.39 1.172 1.828l-.235 1.078.329 1.453v.938l-.235.984c0 .188.125.453.375.797.281.344.422.578.422.703-.375.406-.562.672-.562.797l.093.844-.234 2.578c0 .219.203.578.609 1.078.188-.125.453-.234.797-.328.344-.094.61-.188.797-.281l.281-.188c0-.031-.015-.047-.046-.047.062 0 .25.063.562.188h.188c.25 0 .39-.235.421-.703.032-.5.344-.907.938-1.22l1.125.095c.062-.063.187-.313.375-.75.219-.47.875-1.141 1.969-2.016 1.125-.906 1.984-1.36 2.578-1.36.5 0 .75.22.75.657 0 .125-.063.453-.188.984.25.438.375.813.375 1.125 0 .594-.515 1.235-1.547 1.922-1 .688-1.765 1.547-2.296 2.578l-.188.188-.938-.094c-.062 0-.218.25-.468.75-.219.469-.485.734-.797.797-.313.062-.531.156-.656.281l-.985.61c-.187.124-.812.765-1.875 1.921-1.031 1.125-1.906 1.688-2.625 1.688-.312 0-.875-.156-1.687-.469-.813-.344-1.36-.687-1.641-1.031-.281-.344-.687-.734-1.219-1.172-.5-.438-.75-1.266-.75-2.484 0-.063.079-.172.235-.328.187-.157.281-.282.281-.376-.719-.937-1.078-1.609-1.078-2.015 0-.188.031-.39.094-.61.062-.218.093-.421.093-.609l-.093-1.64.187-.844-.094-.516.282-2.39c0-.376-.219-.563-.657-.563-.125 0-.297.125-.515.375-.219.25-.5.453-.844.61-.312.124-.656.562-1.031 1.312-.563.312-.953.625-1.172.937-.188.282-.344.422-.469.422-.062 0-.187-.031-.375-.093-.375.25-.562.53-.562.843v.188l.093.375c0 .281-.234.547-.703.797s-1.047.89-1.734 1.922c-.313 0-.531.03-.656.093l-.563 1.125c-.312.188-.609.516-.89.985l-.563.28c-.219.407-.437.75-.656 1.032l-.281.516c-1.344 1.593-2.282 2.39-2.813 2.39-.531 0-1.172-.703-1.922-2.109-.75-1.406-1.125-2.5-1.125-3.281l.188-1.735c0-.062-.125-.312-.375-.75v-.187c0-.063.125-.422.375-1.078v-1.407a.73.73 0 0 0-.094-.28v-.235c0-.063.125-.313.375-.75l-.281-1.36.187-.75-.094-1.64.188-1.453c0-.094-.094-.25-.281-.469-.157-.25-.266-.375-.328-.375-.219 0-.876.36-1.969 1.078-1.063.719-1.781 1.281-2.157 1.688-.374.406-.874.89-1.5 1.453-.656.312-1.109 1.11-1.359 2.39 0 .063-.062.094-.187.094 0-.062-.094-.125-.282-.187h-.187c-.156 0-.641.672-1.453 2.015l-.188.188-.89-.188c-.75 0-1.125.797-1.125 2.39 0 .282-.203.47-.61.563-.375.094-.672.36-.89.797-.219.438-.516.89-.891 1.36-.719.312-1.125.547-1.219.703 0 .031-.343.5-1.031 1.406-.688.906-1.062 1.438-1.125 1.594-.063.156-.281.343-.656.562-.344.188-.516.36-.516.516l.141.797c0 .5-.485.75-1.453.75-1.875 0-2.813-1.953-2.813-5.86 0-.437.188-.922.563-1.453.406-.562.797-1.234 1.171-2.015.594-.594 1.297-1.453 2.11-2.578.812-1.126 1.422-1.891 1.828-2.297l.609-.985c0-.375.079-.656.235-.843.156-.188.234-.422.234-.704 0-.5-.125-.75-.375-.75-.594 0-1.062.157-1.406.47a3.237 3.237 0 0 1-1.172.608c-.406.126-.672.344-.797.657-.437.187-.906.593-1.406 1.218-.469.594-.781.97-.938 1.126a2.971 2.971 0 0 0-.468.656c-.125.25-.297.39-.516.422a1.07 1.07 0 0 0-.609.328c-.188.187-.485.281-.891.281-.281 0-.547-.281-.797-.844-.219-.593-.328-.953-.328-1.078 0-2.281 1.516-4.25 4.547-5.906.406-.219.719-.438.937-.656.25-.22.5-.391.75-.516l.188-.328c.25-.375 1.187-.906 2.812-1.594h.657l3.14-.797c1.344-.312 2.016 1.203 2.016 4.547l-.094.844.188.375c.531-.5 1.062-.938 1.593-1.313.563-.406.969-.765 1.219-1.078.25-.312.734-.625 1.453-.937Zm83.11-18 .281-.094h1.266c.374 0 .921-.438 1.64-1.313.063-.062.891-.359 2.484-.89l.188-.188c.438-.375.75-.625.938-.75h.89c.063 0 .313-.14.75-.422.438-.312 1.36-.656 2.766-1.03 1.437-.376 2.375-.688 2.812-.938.188-.063.875-.157 2.063-.282l1.312-.234 1.031.094c1.657 0 2.844 1.094 3.563 3.281 0 .125.078.328.234.61.157.25.235.437.235.562 0 1.313-.641 2.688-1.922 4.125l-.656 1.734c0 .063-.172.297-.516.703a7.15 7.15 0 0 0-.844 1.454c-.25.53-.922 1.343-2.015 2.437-.188.375-.453.969-.797 1.781-.344.782-.641 1.297-.891 1.547-.219.25-.828 1.188-1.828 2.813-.969 1.625-1.453 2.578-1.453 2.86-.469.343-.797.921-.984 1.733a6.388 6.388 0 0 1-.938 2.297l-.094.328c1-.343 1.5-.89 1.5-1.64 0-.094.266-.328.797-.703l.375-.657c.375-.437.703-.687.984-.75.063-.25.391-.609.985-1.078.594-.5.984-.843 1.172-1.03.219-.188.562-.376 1.031-.563.469-.22 1-1 1.594-2.344.062-.25.297-.453.703-.61a2.412 2.412 0 0 0 1.078-.75c.281-.374.516-.624.703-.75l.375-.562c.344-.313.578-.5.703-.563l2.297-2.812c1.219-.781 1.891-1.39 2.016-1.828l.375-.094h.281c.5-.406.828-.687.984-.844 0-.937.344-1.547 1.032-1.828.718-.312 1.234-.672 1.547-1.078.312-.437.656-.656 1.031-.656.093 0 .265.094.515.281h.094c.094 0 .188-.156.281-.469v-.468c0-.532.157-.97.469-1.313.313-.344.734-.562 1.266-.656.531-.125 1.047-.531 1.547-1.219.5-.687 1.062-1.047 1.687-1.078.656-.031 1.094-.281 1.313-.75.218-.469.89-.969 2.015-1.5 1.125-.563 1.828-.86 2.11-.89.281-.063.531-.157.75-.282.25-.125.5-.187.75-.187.312 0 .765.093 1.359.28l.844.188c.719.313 1.39.891 2.015 1.735l.469.468v.188l.094.797v.375c.406.187.609.375.609.562l-.328.61c-.125.218-.187.484-.187.797 0 .28-.016.578-.047.89a7.98 7.98 0 0 1-.141.844c-.031.25-.094.5-.187.75a5.547 5.547 0 0 1-.235.656 5.117 5.117 0 0 1-.328.563l-.375 1.5c-.125.593-.469 1.312-1.031 2.156-.531.813-.844 1.39-.938 1.734-.093.313-.312.75-.656 1.313l.094.281v.656c.969-.125 1.453-.5 1.453-1.125 0-.656.391-1.14 1.172-1.453l1.031-.843c.813-1.438 1.813-2.375 3-2.813 0-.5.297-1.016.891-1.547l1.781-1.687 1.266-.703c.562-1.157 1.203-1.86 1.921-2.11l1.032-.656c.625-.313.968-.61 1.031-.89.094-.313.344-.626.75-.938.406-.313 1-.828 1.781-1.547l.375-.188.469-.468a5.724 5.724 0 0 1 1.172-.47l.375-.187c.781-.593 1.484-.984 2.109-1.172.625-.218 1.328-.562 2.11-1.03l1.64-.235c.375-.125.625-.188.75-.188 2.969 0 4.453 1.672 4.453 5.016l-.093.75.093 2.719c-.781 1.281-1.171 1.953-1.171 2.015l.093.844c0 .125-.203.5-.609 1.125-.406.594-.656.953-.75 1.078-.063.125-.344.453-.844.985l-.469 1.406c-.156.312-.421.61-.797.89V32c0 .469-.609 1.172-1.828 2.11-.156.812-.437 1.421-.843 1.828a4.696 4.696 0 0 0-.891 1.218c-.188.407-.5.797-.938 1.172 0 .406-.265 1.094-.796 2.063-.532.968-.954 1.593-1.266 1.875-.281.25-.578.703-.891 1.359l-.421.188c-.188 1.187-.407 1.859-.657 2.015l-.75-.094v.188c0 .062.063.172.188.328a.806.806 0 0 1 .187.516.71.71 0 0 1-.281.562c-.187.156-.297.313-.328.469a1.091 1.091 0 0 1-.235.469c-.093.156-.156.468-.187.937-.031.438-.266 1.047-.703 1.828-.438.782-.672 1.313-.703 1.594a3.424 3.424 0 0 1-.141.703 1.784 1.784 0 0 0-.094.563c0 .187-.078.672-.234 1.453.594 1.406 1.016 2.36 1.266 2.86s.375.827.375.983c0 1.25-.157 2.094-.469 2.532-.313.406-1.078.61-2.297.61a3.001 3.001 0 0 1-2.063-.798c-.562-.562-1.062-.843-1.5-.843v-.844l-.093-.094h-.75a4.097 4.097 0 0 0-.422-.328 3.057 3.057 0 0 1-.563-.656l-.281-.282c-.25-.312-.469-.828-.656-1.547l-.281-.937.093-.75-.093-1.172c0-.312.031-.562.093-.75l.094-1.266c0-.124.063-.39.188-.796.125-.438.203-.938.234-1.5.031-.594.172-1.047.422-1.36.25-.312.391-.578.422-.797a.88.88 0 0 1 .234-.515c.156-.157.281-.516.375-1.078.094-.563.422-1.016.984-1.36.313-.562.579-1.093.797-1.593.657-.907 1-1.36 1.032-1.36h.656c-.313-.375-.469-.594-.469-.656 0-.844.328-1.266.984-1.266.126 0 .282.032.469.094l.188-.375-.188-.797c0-.531.407-1.062 1.219-1.594 0-.906.422-1.718 1.266-2.437l-.094-.75c.187-.188.453-.594.797-1.219.343-.656.781-1.312 1.312-1.969l1.453-2.203.657-.75v.047a.51.51 0 0 0 .093-.187c.063-.125.125-.297.188-.516l.281-.703.328-.375c.813-.219 1.219-.5 1.219-.844 0-.062-.125-.265-.375-.61v-.187c0-.25.187-.562.563-.937.374-.375.718-.89 1.031-1.547.343-.688.515-1.11.515-1.266 0-.125-.062-.187-.187-.187-1 0-1.672.36-2.016 1.078 0 .187-.609.562-1.828 1.125l-.469.703c-.375.344-.703.516-.984.516s-.656.187-1.125.562c-.437.344-1.422 1.156-2.953 2.438-1.531 1.25-2.656 2.28-3.375 3.093l-1.078.75c-.438.22-.657.391-.657.516 0 .313-.265.719-.796 1.219l-.563.703c-.437-.156-.687-.234-.75-.234-.344 0-.641.171-.891.515.25.25.376.406.376.469 0 .5-.469 1.016-1.407 1.547l-2.015 2.11c-.063.062-.297.233-.704.515-.406.281-.718.64-.937 1.078-.187.406-.734 1.14-1.641 2.203-.906 1.031-1.437 1.594-1.593 1.688-.157.062-.344.265-.563.609-.219.344-.672.828-1.359 1.453-.688.625-1.078 1.313-1.172 2.063-.594.218-.891.406-.891.562l-.281.469-.375.187c-.062.125-.109.344-.141.657-.031.28-.656.812-1.875 1.593-1.218.75-1.984 1.125-2.296 1.125-.094 0-.235.063-.422.188-.188.125-.313.187-.375.187-.094 0-.516-.187-1.266-.562-.719-.375-1.25-1.25-1.594-2.625l.375-1.219-.187-.984c0-.188.14-.438.422-.75.312-.313.468-.703.468-1.172.5-1.125.875-1.922 1.125-2.39l.094-.75c.125-.313.328-.657.61-1.032.312-.406.5-.844.562-1.313.062-.5.266-.812.609-.937.344-.125 1.61-2.016 3.797-5.672v-.656l1.36-2.344c.406-.688.906-1.469 1.5-2.344l.422-1.078c-.969-.375-1.485-.562-1.547-.562-.188 0-.422.125-.703.375 0 .53-.922 1.078-2.766 1.64-.375.188-.86.64-1.453 1.36l-1.313.75c-.187.125-.484.375-.89.75l-.657.609c-.781.188-1.453.625-2.015 1.313l-1.266.89c-.375.313-.625.547-.75.703-.125.157-.703.5-1.734 1.032l-.75.75-.703.374c-.5.532-.875.985-1.125 1.36-.25.375-.578.594-.985.656l-1.031.375c-.188.813-.766 1.594-1.734 2.344l-1.36 1.687a6.51 6.51 0 0 1-.656.516 1.133 1.133 0 0 1-.656.656c-.406.5-.672.844-.797 1.032l-.563.421c-.843.313-1.265.563-1.265.75l.093.844c0 .344-.374.672-1.124.984a.997.997 0 0 0-.563.75 3.04 3.04 0 0 1-.328 1.079h-.844c-.094 0-.391.156-.891.468-.062 0-.124.032-.187.094l.187 1.078c0 .375-.25.813-.75 1.313-.5.468-.89.89-1.171 1.265-.25.375-.438.563-.563.563h-.281l-.281.187c.031.594-.36 1.235-1.172 1.922l-.563.703c-.187.157-.719.938-1.593 2.344-.876 1.406-1.704 2.547-2.485 3.422-.781.875-1.5 1.469-2.156 1.781-.656.281-1.359.578-2.109.89l-1.922-.374a2.192 2.192 0 0 0-.844-.844c-.344-.219-.516-.453-.516-.703l-.562-1.64c0-.438.172-.97.515-1.594.344-.657.547-1.157.61-1.5.093-.375.281-.86.562-1.453.281-.626.422-.97.422-1.032 0-.843.125-1.36.375-1.547.281-.218.891-.687 1.828-1.406.063 0 .094-.062.094-.187v-.094l-.094-.797c.719-1.219 1.172-1.828 1.36-1.828.062 0 .187.031.375.094l-.282-1.032c0-.125.172-.328.516-.609a3.19 3.19 0 0 0 .797-.938l-.188-.562v-.188c0-.593.391-1.203 1.172-1.828.125-.25.375-.89.75-1.922l1.219-2.156c.313-.593.641-.984.984-1.172.344-.218.532-.468.563-.75.031-.28.14-.593.328-.937 0 .156.016.172.047.047.062-.157.141-.469.234-.938.125-.468.485-.843 1.078-1.125.719-1.843 1.282-2.765 1.688-2.765.125 0 .297.062.515.187h.188c.5 0 .75-.187.75-.562 0-.125-.062-.188-.188-.188-.281.313-.531.469-.75.469-.218 0-.328-.063-.328-.188 0-.062.047-.125.141-.187l1.031-2.11.094-.89c.125-.188.375-.469.75-.844l.797-1.078v-.469c0-.062.141-.375.422-.937a8.249 8.249 0 0 0 .609-1.735l.797-1.172c.125-.375.187-.718.187-1.03 0-.47-.062-.704-.187-.704l-2.719.516c-1.468.75-2.515 1.343-3.14 1.781l-1.078.234c-.063 0-.485.22-1.266.657-.75.406-1.422.64-2.016.703-.562.031-1.062.25-1.5.656l-.187.094h-.891c-.344.406-.578.718-.703.937-.125.188-.234.282-.328.282-3.156 2.093-5.156 3.359-6 3.796-.844.438-1.485.844-1.922 1.22-.437.343-.813.593-1.125.75v.562c0 .53-.391 1.14-1.172 1.828-.75.656-1.406.984-1.969.984-.187 0-.484-.094-.89-.281a3.42 3.42 0 0 0-1.313-.422c-.468-.063-.703-.656-.703-1.781 0-1.594 1.313-3.047 3.938-4.36a6.65 6.65 0 0 0 1.125-.656c.343-.25 1.734-.86 4.172-1.828l1.359-.656c.312-.313.828-.594 1.547-.844a26.96 26.96 0 0 0 1.734-.703 7.38 7.38 0 0 1 1.031-.375l.282-.703Zm43.968 11.343.469-.843v-.094c0-.063-.062-.094-.187-.094-.313 0-.563.313-.75.938.062.187.125.281.187.281.125 0 .219-.063.281-.188Zm62.11 15.844.75-.656c.469 0 .75-.203.843-.61.094-.437.422-.78.985-1.03.594-.25 1.141-.75 1.641-1.5.5-.782 1.015-1.172 1.546-1.172.188 0 .407.156.657.468.25.313.375.563.375.75 0 1.032-.313 2.094-.938 3.188l-.187 1.312-.329.61c-.468.25-.781.515-.937.797-.125.28-.484.624-1.078 1.03l-.469.657c-.687.219-1.156.578-1.406 1.078-.219.5-.547.781-.984.844-.407.062-.86.375-1.36.937a6.536 6.536 0 0 1-1.125.422l-.094.469c-.312.313-.812.563-1.5.75-.656.188-1.156.375-1.5.563-.312.156-.531.234-.656.234a4.05 4.05 0 0 1-1.641-.328 4.652 4.652 0 0 0-1.546-.469 1.07 1.07 0 0 1-.328-.61c-.032-.218-.188-.5-.469-.843-.281-.375-.422-.875-.422-1.5l.187-.89c0-.126-.078-.282-.234-.47-.156-.187-.234-.343-.234-.468s.031-.219.093-.282c.063-.062.094-.156.094-.28a1.63 1.63 0 0 0-.094-.516 1.553 1.553 0 0 1-.093-.47l.281-2.296c0-.188-.063-.281-.188-.281s-.359.156-.703.468a1.533 1.533 0 0 1-1.125.47c-.25.187-.453.577-.609 1.171a4.1 4.1 0 0 1-.938.844l-.187.281c-.063.219-.297.406-.703.563-.406.125-.688.297-.844.515l-.469.469-.89-.094c-.063.063-.235.344-.516.844-.281.469-.641.86-1.078 1.172l-3.563 2.906c-.375.25-.922.563-1.64.938l-.282.28c-2.5 1.657-4.265 2.485-5.296 2.485-.844 0-1.828-.234-2.954-.703-1.124-.469-1.734-1.031-1.828-1.687l-.468-1.922c-.282-.438-.422-1.047-.422-1.828 0-.375.031-.625.094-.75v-.282l-.094-1.547c0-.374.297-.562.89-.562l-.093-1.266c0-.125.265-.609.797-1.453.562-.875.937-1.375 1.124-1.5l.469-.61c-.031-.374.188-.765.657-1.171a7.015 7.015 0 0 0 1.124-1.313c.282-.437.813-.921 1.594-1.453l1.406-1.406c1.094-1.094 2.282-1.969 3.563-2.625.187-.062.563-.375 1.125-.937a5.452 5.452 0 0 1 1.969-1.22c.75-.28 1.469-.624 2.156-1.03.719-.407 1.281-.61 1.687-.61h.376c.124 0 .953-.39 2.484-1.172h.281c.125 0 .422.125.891.375h.094l.75-.375c.124-.062.281-.093.468-.093 1.938 0 3 1.343 3.188 4.03.062.563.218.845.468.845.313 0 .75-.563 1.313-1.688.594-1.156 1.828-1.734 3.703-1.734 1.344 0 2.016.86 2.016 2.578 0 2.031-.906 3.953-2.719 5.766-.125.25-.219.53-.281.843l-.656 1.922v.094c0 .187-.141.453-.422.797-.25.312-.375.593-.375.843l.093 1.172-.187 1.313c0 .594.109.984.328 1.172 1-.25 1.719-.657 2.156-1.219.469-.594.797-.922.985-.984l.468-.188c.282-.469.61-.86.985-1.172Zm-15.563 0c.125-.687.5-1.203 1.125-1.547.657-.375 1.047-.75 1.172-1.125.594-.437 1.438-1.218 2.531-2.343 1.125-1.125 1.688-1.813 1.688-2.063 0-.094-.063-.14-.188-.14h-.093l-.375.234-.844-.094-.891.094-.656-.328-.609.093-.938-.187c-.5 0-.937.11-1.312.328-.344.188-1.032.406-2.063.656a7.33 7.33 0 0 0-2.719 1.313c-.812.594-1.406.89-1.781.89-.219.47-.953 1.141-2.203 2.016-.75.25-1.234.797-1.453 1.64-.813.657-1.219 1.032-1.219 1.126l-.328.797c-.25.218-.562.406-.938.562-.374.125-.593.453-.656.984-.062.5-.281.97-.656 1.407-.344.406-.516.734-.516.984 0 1.531.297 2.297.891 2.297.25 0 .766-.156 1.547-.469.812-.343 1.281-.578 1.406-.703s.375-.25.75-.375l.891-.469a.814.814 0 0 1 .422-.234c.156-.031.312-.125.468-.281.157-.188.438-.375.844-.563.406-.218.719-.5.938-.843.531-.313 1.39-.797 2.578-1.454l.984-.75c.688-.312 1.109-.578 1.266-.797.156-.218.469-.437.937-.656Zm30-10.64.703-.188.282-.61c1.531-.906 2.625-1.765 3.281-2.577.062-.125.203-.25.422-.375.218-.125.453-.344.703-.657 1.156-1.156 2.531-1.734 4.125-1.734 1.875 0 2.875 1.14 3 3.422l.281.703c.25.438.594 1.328 1.031 2.672.469 1.344.704 2.172.704 2.484 0 .844-.266 1.688-.797 2.532-.438.218-1.485 1.39-3.141 3.515l-.469.328a9.456 9.456 0 0 1-.984 1.688c-.625.218-.938.453-.938.703v.844c0 .062-.078.187-.234.375-.125.187-.313.547-.563 1.078l-.374.562c-.126.125-.25.39-.376.797a3.298 3.298 0 0 1-.562 1.031c-.219.313-.328.563-.328.75 0 .47.609.703 1.828.703.062 0 .297-.093.703-.28l.656.187c.063 0 .219-.094.469-.282.25-.218.625-.39 1.125-.515.531-.125.985-.313 1.359-.563.407-.25.876-.468 1.407-.656a5.058 5.058 0 0 0 1.593-.89c.5-.438.985-.75 1.454-.938.5-.188.953-.469 1.359-.844a10.58 10.58 0 0 1 1.453-1.125c.531-.343 1.375-1.093 2.531-2.25.75-.593 1.266-.922 1.547-.984.063 0 .328-.406.797-1.219.5-.844 1.063-1.266 1.688-1.266.656 0 .984.313.984.938 0 .344-.156.672-.469.984v.282l.094.75c.062.093.094.234.094.422 0 .124-.125.312-.375.562-.219.25-.375.578-.469.984-.094.375-.391.625-.891.75-.187.688-.437 1.078-.75 1.172-.281.094-.687.407-1.218.938-.532.531-1.282 1.156-2.25 1.875-.969.718-1.641 1.281-2.016 1.687-.344.375-.578.563-.703.563-.063 0-.188-.063-.375-.188-.188-.125-.313-.187-.375-.187-.188 0-.313.218-.375.656l-.188.469c-.406.25-.64.375-.703.375l-.281-.094h-.187c-.376 0-.563.14-.563.422l.281.469v.093c0 .438-.25.657-.75.657-.344 0-1.344.578-3 1.734l-1.359.281-1.125.61c-.375-.22-.61-.329-.703-.329l-.75.235-1.36.094c-.031 0-.609-.313-1.734-.938-1.094-.625-1.75-1.25-1.969-1.875-.218-.625-.5-1.25-.844-1.875-.343-.656-.515-1.11-.515-1.36 0-1.5.125-2.562.375-3.187.25-.656.406-1.14.469-1.453.062-.312.234-.64.515-.984.313-.375.563-.969.75-1.782.906-1.812 1.532-2.921 1.875-3.328.344-.406.61-.906.797-1.5l.61-.843c.062-.063.156-.297.281-.703.125-.438.281-.688.469-.75.25-.438.374-.72.374-.844 0-.907-.406-1.36-1.218-1.36-.156 0-.328.172-.516.516-.187.313-.625.625-1.312.938-.657.312-1.063.546-1.219.703-.156.156-.5.359-1.031.609-.5.219-.938.578-1.313 1.078l-.797.375c-.25.594-.468.922-.656.984-.188.063-.766.22-1.734.47-.063.03-.219.218-.469.562-.25.343-.609.515-1.078.515-.375.375-.75.813-1.125 1.313-.125 0-.453.125-.985.375l-.937.234c-.25.188-.531.485-.844.89-.281.407-.828.61-1.64.61-.469 0-.704-.375-.704-1.125 0-1.531.532-2.75 1.594-3.656 1.094-.906 1.891-1.39 2.391-1.453.5-.063.812-.25.937-.563.125-.312.422-.562.891-.75.5-.218 1.062-.672 1.687-1.359.657-.719 1.36-1.203 2.11-1.453l.562-.656Zm45.656-16.922-.281-1.828v-.282c0-1.468.5-2.28 1.5-2.437.219-.031.875-.235 1.969-.61.562.125 1.141.625 1.734 1.5.625.844.938 1.594.938 2.25 0 .063-.047.204-.141.422-.093.22-.156.641-.187 1.266-.032.594-.344 1.125-.938 1.594-.562.437-1.172.656-1.828.656-.437 0-1-.297-1.687-.89-.657-.626-1.016-1.172-1.079-1.641Zm-20.25 23.437.75-.656h.282c.218 0 .547-.234.984-.703l.469-.188c.625-.937 1.172-1.484 1.641-1.64l.75-.563c.124-.125.296-.234.515-.328.25-.094.625-.39 1.125-.89.531-.532.953-.797 1.266-.797.312 0 .562.03.75.093.187-.375.562-.734 1.125-1.078a4.971 4.971 0 0 0 1.359-1.312l.61-.282a5 5 0 0 0 1.312-.937c.406-.406.922-.61 1.547-.61.906 0 1.844.47 2.812 1.407 1 .906 1.5 1.781 1.5 2.625l-.797 3.656c-.531 2.688-1.124 4.094-1.781 4.219l-.187.984c-.438.313-.656.563-.656.75l.281 1.125c0 .157-.172.39-.516.703-.062 0-.094.094-.094.282v1.922c0 .343-.218.624-.656.843.063.063.156.125.281.188.188-.188.61-.282 1.266-.282l.75.094 1.031-1.031c.219-.063.516-.203.891-.422.406-.25 1.078-.562 2.016-.937l6.14-4.688c.844-.844 1.484-1.266 1.922-1.266.469 0 .703.297.703.891 0 .688-.141 1.266-.422 1.734-.25.438-.484.985-.703 1.641-.219.625-.484 1.063-.797 1.313-.281.25-.515.53-.703.843-.187.282-.703.703-1.547 1.266a15.286 15.286 0 0 0-2.109 1.734c-.563.563-1.031.97-1.406 1.22l-2.016 1.452-.281.469c-.063.063-.36.203-.891.422-.5.187-.953.437-1.359.75l-.844.469c-.187.125-.5.203-.937.234-.407.031-.766.219-1.079.563-.312.312-.562.468-.75.468l-.703-.093-.937.28c-.531 0-1.188-.312-1.969-.937-.75-.656-1.125-1.343-1.125-2.062v-.282l.094-.656c0-.125-.094-.437-.281-.937-.188-.532-.282-.828-.282-.89l.094-.657-.094-.281c0-.844.063-1.375.188-1.594.125-.219.218-.516.281-.89.063-.407.125-.735.187-.985l.235-1.172c.125-.375.281-.625.469-.75.062-.25.187-.672.375-1.266l.187-.843.469-.657c.25-.25.391-.578.422-.984.062-.438.234-.89.515-1.36.282-.468.422-.75.422-.843 0-.375-.187-.563-.562-.563-.125 0-.516.25-1.172.75l-.844-.28c-.062 0-.234.155-.516.468 0 .125-.14.219-.421.281-.282.063-.547.297-.797.703l-.375.094-.61-.281h-.187c-.313 0-.5.343-.563 1.031-.343.5-.797.828-1.359.984l-1.031.282c-.344.125-.594.406-.75.843-.157.438-.469.844-.938 1.22-.469.343-.781.515-.937.515-.875 0-1.313-.485-1.313-1.453l.375-2.203-.094-.282Zm64.688 4.125.75-.656c.469 0 .75-.203.844-.61.094-.437.422-.78.984-1.03.594-.25 1.141-.75 1.641-1.5.5-.782 1.015-1.172 1.547-1.172.187 0 .406.156.656.468.25.313.375.563.375.75 0 1.032-.313 2.094-.938 3.188l-.187 1.312-.328.61c-.469.25-.782.515-.938.797-.125.28-.484.624-1.078 1.03l-.469.657c-.687.219-1.156.578-1.406 1.078-.219.5-.547.781-.984.844-.407.062-.86.375-1.36.937a6.536 6.536 0 0 1-1.125.422l-.093.469c-.313.313-.813.563-1.5.75-.657.188-1.157.375-1.5.563-.313.156-.532.234-.657.234a4.06 4.06 0 0 1-1.64-.328 4.657 4.657 0 0 0-1.547-.469 1.07 1.07 0 0 1-.328-.61c-.031-.218-.188-.5-.469-.843-.281-.375-.422-.875-.422-1.5l.188-.89c0-.126-.078-.282-.235-.47-.156-.187-.234-.343-.234-.468s.031-.219.094-.282c.062-.062.093-.156.093-.28a1.65 1.65 0 0 0-.093-.516 1.528 1.528 0 0 1-.094-.47l.281-2.296c0-.188-.062-.281-.187-.281s-.36.156-.703.468a1.536 1.536 0 0 1-1.126.47c-.25.187-.453.577-.609 1.171-.25.313-.562.594-.937.844l-.188.281c-.062.219-.297.406-.703.563-.406.125-.687.297-.844.515l-.469.469-.89-.094c-.063.063-.234.344-.516.844a3.86 3.86 0 0 1-1.078 1.172l-3.562 2.906c-.375.25-.922.563-1.641.938l-.281.28c-2.5 1.657-4.266 2.485-5.297 2.485-.844 0-1.828-.234-2.953-.703-1.125-.469-1.735-1.031-1.828-1.687l-.469-1.922c-.281-.438-.422-1.047-.422-1.828 0-.375.031-.625.094-.75v-.282l-.094-1.547c0-.374.297-.562.891-.562l-.094-1.266c0-.125.266-.609.797-1.453.562-.875.937-1.375 1.125-1.5l.468-.61c-.031-.374.188-.765.657-1.171a7.023 7.023 0 0 0 1.125-1.313c.281-.437.812-.921 1.594-1.453l1.406-1.406c1.094-1.094 2.281-1.969 3.562-2.625.188-.062.563-.375 1.125-.937A5.452 5.452 0 0 1 488 40.67c.75-.28 1.469-.624 2.156-1.03.719-.407 1.282-.61 1.688-.61h.375c.125 0 .953-.39 2.484-1.172h.281c.125 0 .422.125.891.375h.094l.75-.375a1.05 1.05 0 0 1 .469-.093c1.937 0 3 1.343 3.187 4.03.063.563.219.845.469.845.312 0 .75-.563 1.312-1.688.594-1.156 1.828-1.734 3.703-1.734 1.344 0 2.016.86 2.016 2.578 0 2.031-.906 3.953-2.719 5.766-.125.25-.218.53-.281.843l-.656 1.922v.094c0 .187-.141.453-.422.797-.25.312-.375.593-.375.843l.094 1.172-.188 1.313c0 .594.11.984.328 1.172 1-.25 1.719-.657 2.156-1.219.469-.594.797-.922.985-.984l.469-.188c.281-.469.609-.86.984-1.172Zm-15.562 0c.124-.687.5-1.203 1.124-1.547.657-.375 1.047-.75 1.172-1.125.594-.437 1.438-1.218 2.532-2.343 1.125-1.125 1.687-1.813 1.687-2.063 0-.094-.062-.14-.187-.14h-.094l-.375.234-.844-.094-.891.094-.656-.328-.609.093-.938-.187c-.5 0-.937.11-1.312.328-.344.188-1.031.406-2.063.656a7.32 7.32 0 0 0-2.718 1.313c-.813.594-1.407.89-1.782.89-.218.47-.953 1.141-2.203 2.016-.75.25-1.234.797-1.453 1.64-.812.657-1.219 1.032-1.219 1.126l-.328.797a3.4 3.4 0 0 1-.937.562c-.375.125-.594.453-.656.984-.063.5-.282.97-.657 1.407-.343.406-.515.734-.515.984 0 1.531.296 2.297.89 2.297.25 0 .766-.156 1.547-.469.813-.343 1.281-.578 1.406-.703s.375-.25.75-.375l.891-.469a.818.818 0 0 1 .422-.234c.156-.031.312-.125.469-.281.156-.188.437-.375.843-.563.407-.218.719-.5.938-.843.531-.313 1.39-.797 2.578-1.454l.984-.75c.688-.312 1.11-.578 1.266-.797.156-.218.469-.437.938-.656Zm52.687-30.234-.469.375-1.265 2.297c-.063.187-.188.39-.375.61l-.61.843c-.187.656-.453 1.187-.797 1.594-.343.406-.562.812-.656 1.218-.094.375-.25.672-.469.891-.187.219-.406.844-.656 1.875l-1.031 3.14-.609.797v.563c0 .188-.25.438-.75.75v1.64c-.344.47-.704 1.079-1.079 1.829l-.421 3.14c-.313 2.782-.766 4.422-1.36 4.922l-.609.563c-.157.343-.469.515-.938.515-.25 0-.797-.422-1.64-1.265l-.563-.188c-.531-.25-1.062-.843-1.594-1.781-.5-.938-.75-1.813-.75-2.625 0-1.094.141-1.875.422-2.344.313-.5.485-.875.516-1.125l2.39-6.281c.938-2.5 1.954-4.563 3.047-6.188l.657-1.828.468-.562.469-1.828c.125-.125.328-.297.609-.516.469-1.562.922-2.594 1.36-3.094a4.82 4.82 0 0 0 .937-1.875c.188-.718.422-1.156.703-1.312.282-.156.5-.656.657-1.5.187-.844.781-1.406 1.781-1.688l-.281-.609v-.094c0-.062.187-.344.562-.844.407-.5.969-1.828 1.688-3.984.75-2.156 1.703-3.234 2.859-3.234.594 0 1.438.781 2.531 2.343 1.125 1.532 1.688 2.672 1.688 3.422 0 .97-.609 2.172-1.828 3.61-1.219 1.437-2.172 2.797-2.86 4.078-.656 1.281-1.078 2.203-1.265 2.765-.156.532-.313.86-.469.985Zm-13.641 31.687.375.375c.625.625.969 1.125 1.032 1.5.093.344.265.72.515 1.125.25.375.375.72.375 1.032 0 .125-.187.422-.562.89-.375.438-.688 1.422-.938 2.953-.219 1.532-1 2.297-2.343 2.297-1.157 0-1.985-.297-2.485-.89-.531 0-.891-.063-1.078-.188-.156-.156-.437-.656-.844-1.5-.375-.844-.703-1.406-.984-1.687-.25-.282-.375-.688-.375-1.22 0-.687.25-1.327.75-1.921.5-.625.859-1.266 1.078-1.922.969-.969 1.625-1.469 1.969-1.5.343-.031.625-.094.843-.187.25-.094.532-.141.844-.141.563 0 1.172.328 1.828.984Z" fill="#111"/></svg>