<svg xmlns="http://www.w3.org/2000/svg" xmlns:xlink="http://www.w3.org/1999/xlink"><symbol id="check-circle" viewBox="0 0 41 41">
<path d="M25.034 15.15L17.884 22.3167L15.134 19.5667C14.9846 19.3922 14.8007 19.2505 14.5939 19.1505C14.3872 19.0505 14.1619 18.9942 13.9324 18.9854C13.7029 18.9765 13.474 19.0152 13.2601 19.099C13.0462 19.1828 12.852 19.3099 12.6896 19.4723C12.5272 19.6347 12.4001 19.829 12.3163 20.0428C12.2325 20.2567 12.1938 20.4856 12.2027 20.7151C12.2115 20.9447 12.2677 21.1699 12.3678 21.3767C12.4678 21.5834 12.6095 21.7673 12.784 21.9167L16.7007 25.85C16.8564 26.0045 17.0411 26.1267 17.2442 26.2097C17.4472 26.2926 17.6647 26.3346 17.884 26.3334C18.3212 26.3315 18.7402 26.1579 19.0507 25.85L27.384 17.5167C27.5402 17.3618 27.6642 17.1774 27.7488 16.9743C27.8334 16.7712 27.877 16.5534 27.877 16.3334C27.877 16.1134 27.8334 15.8955 27.7488 15.6924C27.6642 15.4893 27.5402 15.305 27.384 15.15C27.0717 14.8396 26.6493 14.6654 26.209 14.6654C25.7687 14.6654 25.3463 14.8396 25.034 15.15ZM20.5007 3.83337C17.2043 3.83337 13.982 4.81086 11.2412 6.64221C8.50034 8.47357 6.36413 11.0765 5.10267 14.122C3.84121 17.1674 3.51115 20.5185 4.15424 23.7515C4.79732 26.9846 6.38467 29.9543 8.71555 32.2852C11.0464 34.616 14.0161 36.2034 17.2492 36.8465C20.4822 37.4896 23.8333 37.1595 26.8787 35.898C29.9242 34.6366 32.5271 32.5004 34.3585 29.7595C36.1898 27.0187 37.1673 23.7964 37.1673 20.5C37.1673 18.3113 36.7362 16.1441 35.8987 14.122C35.0611 12.0999 33.8334 10.2626 32.2858 8.71493C30.7381 7.16728 28.9008 5.93963 26.8787 5.10205C24.8566 4.26447 22.6894 3.83337 20.5007 3.83337ZM20.5007 33.8334C17.8636 33.8334 15.2857 33.0514 13.0931 31.5863C10.9004 30.1212 9.19143 28.0388 8.18227 25.6025C7.1731 23.1661 6.90905 20.4853 7.42352 17.8988C7.93799 15.3124 9.20787 12.9367 11.0726 11.072C12.9373 9.20725 15.313 7.93737 17.8995 7.4229C20.4859 6.90843 23.1668 7.17248 25.6031 8.18165C28.0395 9.19082 30.1218 10.8998 31.5869 13.0924C33.052 15.2851 33.834 17.863 33.834 20.5C33.834 24.0363 32.4292 27.4277 29.9288 29.9281C27.4283 32.4286 24.0369 33.8334 20.5007 33.8334Z" fill="#111111"/>
</symbol><symbol id="facebook-messenger" viewBox="0 0 30 30">
<path d="M14.9894 1.25001C13.1978 1.18474 11.4116 1.48324 9.73855 2.12749C8.06555 2.77173 6.54046 3.74835 5.25539 4.99838C3.97031 6.24841 2.9519 7.74592 2.26165 9.40047C1.57141 11.055 1.22364 12.8323 1.23935 14.625C1.21569 16.4724 1.58378 18.3038 2.31935 19.9986C3.05492 21.6934 4.14129 23.2131 5.50685 24.4575L5.57185 26.57C5.59004 27.1543 5.83493 27.7086 6.25466 28.1155C6.67439 28.5224 7.23601 28.75 7.8206 28.75C8.13294 28.7496 8.44185 28.685 8.7281 28.56L11.1294 27.5C12.3886 27.8351 13.6863 28.0032 14.9894 28C16.781 28.0653 18.5673 27.7668 20.2403 27.1225C21.9134 26.4783 23.4386 25.5017 24.7237 24.2517C26.0089 23.0017 27.0274 21.5042 27.7178 19.8496C28.4082 18.1951 28.7561 16.4178 28.7406 14.625C28.7561 12.8324 28.4082 11.0552 27.7179 9.40068C27.0276 7.74621 26.0092 6.24878 24.7242 4.99878C23.4391 3.74879 21.9141 2.77216 20.2412 2.12785C18.5683 1.48354 16.7809 1.18492 14.9894 1.25001ZM14.9906 25.5C13.878 25.5035 12.77 25.3563 11.6969 25.0625C11.2 24.9287 10.6724 24.9693 10.2019 25.1775L8.05935 26.1225L8.0031 24.2563C7.99068 23.9538 7.91768 23.6569 7.78842 23.3831C7.65916 23.1093 7.47628 22.8643 7.2506 22.6625C6.12595 21.6506 5.23069 20.41 4.62488 19.0237C4.01907 17.6375 3.71672 16.1377 3.7381 14.625C3.73022 13.1628 4.01867 11.7141 4.58605 10.3664C5.15344 9.01869 5.98798 7.79991 7.03933 6.7836C8.09068 5.7673 9.33704 4.97454 10.7032 4.45315C12.0693 3.93177 13.527 3.69258 14.9881 3.75001C16.4472 3.70053 17.9014 3.9452 19.264 4.46945C20.6267 4.99369 21.8698 5.78679 22.9196 6.80151C23.9693 7.81624 24.804 9.03183 25.3742 10.3759C25.9443 11.72 26.2381 13.165 26.2381 14.625C26.2381 16.085 25.9443 17.53 25.3742 18.8741C24.804 20.2182 23.9693 21.4338 22.9196 22.4485C21.8698 23.4632 20.6267 24.2563 19.264 24.7806C17.9014 25.3048 16.4472 25.5495 14.9881 25.5M19.6569 10.7313L16.7656 14.175L12.5819 11.605C12.3266 11.4479 12.0232 11.3879 11.7273 11.4361C11.4314 11.4843 11.1628 11.6375 10.9706 11.8675L7.1581 16.4125C7.0439 16.5368 6.95606 16.683 6.89989 16.8422C6.84373 17.0014 6.82039 17.1704 6.83129 17.3388C6.84219 17.5073 6.88711 17.6718 6.96333 17.8224C7.03955 17.9731 7.14549 18.1067 7.27477 18.2153C7.40404 18.3239 7.55397 18.4051 7.71551 18.4542C7.87705 18.5032 8.04685 18.5191 8.21467 18.5007C8.38249 18.4823 8.54485 18.4301 8.69196 18.3473C8.83907 18.2645 8.96787 18.1527 9.0706 18.0188L12.1944 14.3L16.3781 16.87C16.6334 17.0272 16.9367 17.0871 17.2326 17.0389C17.5285 16.9907 17.7971 16.8376 17.9894 16.6075L21.5718 12.3388C21.682 12.2137 21.7661 12.0679 21.8191 11.9099C21.8721 11.752 21.893 11.585 21.8805 11.4188C21.868 11.2526 21.8225 11.0906 21.7465 10.9423C21.6705 10.794 21.5656 10.6624 21.438 10.5552C21.3104 10.448 21.1626 10.3674 21.0034 10.3182C20.8442 10.2689 20.6768 10.252 20.511 10.2684C20.3451 10.2848 20.1843 10.3342 20.0378 10.4137C19.8913 10.4932 19.761 10.6012 19.6569 10.7313Z" fill="#111111"/>
</symbol><symbol id="facebook" viewBox="0 0 30 30">
<path d="M18.8992 6.65004H21.2492V2.67504C20.1114 2.55672 18.9682 2.49831 17.8242 2.50004C14.4242 2.50004 12.0992 4.57504 12.0992 8.37504V11.65H8.26172V16.1H12.0992V27.5H16.6992V16.1H20.5242L21.0992 11.65H16.6992V8.81254C16.6992 7.50004 17.0492 6.65004 18.8992 6.65004Z" fill="#111111"/>
</symbol><symbol id="instagram" viewBox="0 0 30 30">
<path d="M21.675 6.825C21.3783 6.825 21.0883 6.91297 20.8416 7.0778C20.595 7.24262 20.4027 7.47689 20.2892 7.75097C20.1756 8.02506 20.1459 8.32666 20.2038 8.61763C20.2617 8.90861 20.4046 9.17588 20.6143 9.38566C20.8241 9.59544 21.0914 9.7383 21.3824 9.79618C21.6733 9.85405 21.9749 9.82435 22.249 9.71082C22.5231 9.59729 22.7574 9.40503 22.9222 9.15835C23.087 8.91168 23.175 8.62167 23.175 8.325C23.175 7.92717 23.017 7.54564 22.7357 7.26434C22.4544 6.98304 22.0728 6.825 21.675 6.825ZM27.425 9.85C27.4007 8.81287 27.2064 7.78675 26.85 6.8125C26.5322 5.97892 26.0375 5.2241 25.4 4.6C24.781 3.95928 24.0244 3.46772 23.1875 3.1625C22.2158 2.7952 21.1886 2.59651 20.15 2.575C18.825 2.5 18.4 2.5 15 2.5C11.6 2.5 11.175 2.5 9.85 2.575C8.81144 2.59651 7.78418 2.7952 6.8125 3.1625C5.9771 3.47081 5.22117 3.96195 4.6 4.6C3.95928 5.21897 3.46772 5.97555 3.1625 6.8125C2.7952 7.78418 2.59651 8.81144 2.575 9.85C2.5 11.175 2.5 11.6 2.5 15C2.5 18.4 2.5 18.825 2.575 20.15C2.59651 21.1886 2.7952 22.2158 3.1625 23.1875C3.46772 24.0244 3.95928 24.781 4.6 25.4C5.22117 26.038 5.9771 26.5292 6.8125 26.8375C7.78418 27.2048 8.81144 27.4035 9.85 27.425C11.175 27.5 11.6 27.5 15 27.5C18.4 27.5 18.825 27.5 20.15 27.425C21.1886 27.4035 22.2158 27.2048 23.1875 26.8375C24.0244 26.5323 24.781 26.0407 25.4 25.4C26.0403 24.7782 26.5354 24.0227 26.85 23.1875C27.2064 22.2132 27.4007 21.1871 27.425 20.15C27.425 18.825 27.5 18.4 27.5 15C27.5 11.6 27.5 11.175 27.425 9.85ZM25.175 20C25.1659 20.7935 25.0222 21.5796 24.75 22.325C24.5504 22.869 24.2298 23.3605 23.8125 23.7625C23.4071 24.1756 22.9165 24.4955 22.375 24.7C21.6296 24.9722 20.8435 25.1159 20.05 25.125C18.8 25.1875 18.3375 25.2 15.05 25.2C11.7625 25.2 11.3 25.2 10.05 25.125C9.22611 25.1404 8.40574 25.0136 7.625 24.75C7.10723 24.5351 6.63919 24.216 6.25 23.8125C5.83511 23.4109 5.51855 22.919 5.325 22.375C5.01982 21.6189 4.85055 20.8149 4.825 20C4.825 18.75 4.75 18.2875 4.75 15C4.75 11.7125 4.75 11.25 4.825 10C4.8306 9.18882 4.97869 8.38493 5.2625 7.625C5.48256 7.09739 5.82033 6.62707 6.25 6.25C6.62977 5.82021 7.09911 5.47887 7.625 5.25C8.38694 4.97505 9.19 4.83135 10 4.825C11.25 4.825 11.7125 4.75 15 4.75C18.2875 4.75 18.75 4.75 20 4.825C20.7935 4.8341 21.5796 4.97781 22.325 5.25C22.893 5.46082 23.4029 5.80356 23.8125 6.25C24.2221 6.63397 24.5422 7.10342 24.75 7.625C25.0278 8.38617 25.1716 9.18972 25.175 10C25.2375 11.25 25.25 11.7125 25.25 15C25.25 18.2875 25.2375 18.75 25.175 20ZM15 8.5875C13.7323 8.58997 12.4937 8.96816 11.4408 9.67427C10.3879 10.3804 9.56797 11.3827 9.08454 12.5547C8.60111 13.7266 8.4759 15.0156 8.72474 16.2587C8.97358 17.5017 9.58529 18.6432 10.4826 19.5387C11.3799 20.4343 12.5225 21.0438 13.7661 21.2902C15.0096 21.5366 16.2983 21.4089 17.4693 20.9232C18.6403 20.4375 19.6411 19.6155 20.3452 18.5613C21.0492 17.507 21.425 16.2677 21.425 15C21.4267 14.1564 21.2615 13.3208 20.939 12.5412C20.6166 11.7616 20.1432 11.0535 19.5461 10.4576C18.949 9.86161 18.2399 9.3896 17.4597 9.06866C16.6796 8.74772 15.8436 8.5842 15 8.5875ZM15 19.1625C14.1767 19.1625 13.372 18.9184 12.6874 18.461C12.0029 18.0036 11.4694 17.3535 11.1544 16.5929C10.8393 15.8323 10.7569 14.9954 10.9175 14.1879C11.0781 13.3805 11.4745 12.6388 12.0567 12.0567C12.6388 11.4745 13.3805 11.0781 14.1879 10.9175C14.9954 10.7569 15.8323 10.8393 16.5929 11.1544C17.3535 11.4694 18.0036 12.0029 18.461 12.6874C18.9184 13.372 19.1625 14.1767 19.1625 15C19.1625 15.5466 19.0548 16.0879 18.8456 16.5929C18.6365 17.0979 18.3299 17.5568 17.9433 17.9433C17.5568 18.3299 17.0979 18.6365 16.5929 18.8456C16.0879 19.0548 15.5466 19.1625 15 19.1625Z" fill="#111111"/>
</symbol><symbol id="skype" viewBox="0 0 30 30">
<path d="M18.9254 14.7662C18.4245 14.4446 17.8809 14.1951 17.3104 14.025C16.9604 13.9187 16.5729 13.815 16.1729 13.7162C15.8229 13.6187 15.4079 13.5187 14.8954 13.4062C14.2839 13.278 13.6836 13.1007 13.1004 12.8762C12.7999 12.7595 12.5346 12.567 12.3304 12.3175C12.181 12.1133 12.11 11.8622 12.1304 11.61C12.13 11.3395 12.2202 11.0768 12.3867 10.8637C12.6197 10.5908 12.922 10.3857 13.2617 10.27C13.8331 10.0736 14.4353 9.98215 15.0392 9.99995C15.5065 9.9922 15.9724 10.0537 16.4217 10.1825C16.7197 10.2663 17.0003 10.4026 17.2504 10.585C17.4122 10.7004 17.5501 10.846 17.6567 11.0137C17.7339 11.1594 17.8391 11.2883 17.9663 11.3932C18.0935 11.498 18.2402 11.5766 18.398 11.6245C18.5557 11.6724 18.7214 11.6887 18.8854 11.6723C19.0494 11.6559 19.2086 11.6073 19.3538 11.5291C19.4989 11.451 19.6272 11.3449 19.7312 11.217C19.8351 11.0891 19.9128 10.9419 19.9597 10.7838C20.0065 10.6258 20.0217 10.46 20.0042 10.2961C19.9867 10.1322 19.937 9.97334 19.8579 9.8287C19.5943 9.36248 19.2383 8.95499 18.8117 8.6312C18.3188 8.25254 17.7597 7.96896 17.1629 7.79495C16.4741 7.59144 15.7587 7.49201 15.0404 7.49995C14.1274 7.48031 13.2186 7.6286 12.3592 7.93745C11.582 8.22039 10.8992 8.7148 10.3879 9.36495C9.89822 10.0114 9.63311 10.8002 9.63294 11.6112C9.61266 12.4186 9.86841 13.2088 10.3579 13.8512C10.8305 14.4464 11.4501 14.9082 12.1554 15.1912C12.6884 15.3963 13.2342 15.5667 13.7892 15.7012C13.7992 15.705 13.8067 15.7137 13.8167 15.7162C14.0567 15.7887 14.4392 15.885 14.9917 16.0037C15.2079 16.0512 15.4104 16.1025 15.6129 16.1537C15.6329 16.1587 15.6617 16.165 15.6804 16.1712L15.7029 16.1737C16.0129 16.2537 16.3117 16.335 16.5854 16.4187C16.9218 16.5171 17.2428 16.6618 17.5392 16.8487C17.724 16.9648 17.8794 17.1223 17.9929 17.3087C18.1028 17.5362 18.1536 17.7877 18.1404 18.04C18.1577 18.3665 18.0634 18.6892 17.8729 18.955C17.6157 19.2897 17.2678 19.5435 16.8704 19.6862C16.2782 19.9148 15.6461 20.0219 15.0117 20.0012C14.278 20.0294 13.5482 19.882 12.8829 19.5712C12.5757 19.4076 12.3118 19.1732 12.1129 18.8875C11.9734 18.7046 11.8861 18.4873 11.8604 18.2587C11.8604 17.9272 11.7287 17.6092 11.4943 17.3748C11.2599 17.1404 10.942 17.0087 10.6104 17.0087C10.2789 17.0087 9.96098 17.1404 9.72656 17.3748C9.49214 17.6092 9.36044 17.9272 9.36044 18.2587C9.38105 18.9963 9.62322 19.7106 10.0554 20.3087C10.4874 20.9308 11.0628 21.4397 11.7329 21.7925C12.7526 22.29 13.8776 22.5331 15.0117 22.5012C15.9754 22.5245 16.9339 22.3523 17.8292 21.995C18.6615 21.6756 19.3841 21.1231 19.9104 20.4037C20.4108 19.7028 20.6673 18.857 20.6404 17.9962C20.652 17.3289 20.4905 16.67 20.1717 16.0837C19.8637 15.5544 19.4371 15.1038 18.9254 14.7675M27.9517 17.115C28.2889 15.0606 28.1322 12.9555 27.4945 10.9737C26.8568 8.99188 25.7564 7.19041 24.2843 5.71825C22.8123 4.24609 21.0109 3.14555 19.0292 2.50767C17.0475 1.86979 14.9423 1.71289 12.8879 2.04996C11.3712 1.32273 9.66613 1.08424 8.00808 1.36742C6.35002 1.65059 4.82075 2.44146 3.63135 3.63086C2.44195 4.82026 1.65108 6.34953 1.36791 8.00759C1.08473 9.66565 1.32322 11.3707 2.05044 12.8875C1.71371 14.9415 1.87076 17.0462 2.50862 19.0276C3.14647 21.0089 4.2468 22.8099 5.71863 24.2818C7.19046 25.7536 8.9915 26.8539 10.9728 27.4918C12.9542 28.1296 15.0589 28.2867 17.1129 27.95C18.6297 28.6772 20.3347 28.9157 21.9928 28.6325C23.6509 28.3493 25.1801 27.5584 26.3695 26.369C27.5589 25.1796 28.3498 23.6504 28.633 21.9923C28.9162 20.3343 28.6777 18.6292 27.9504 17.1125M20.6254 26.25C19.677 26.2495 18.744 26.0096 17.9129 25.5525C17.6551 25.4104 17.3556 25.3635 17.0667 25.42C15.5262 25.7272 13.9366 25.6887 12.4128 25.3073C10.8889 24.9258 9.46869 24.2109 8.25459 23.214C7.0405 22.2172 6.06278 20.9634 5.39196 19.5429C4.72115 18.1225 4.37396 16.5708 4.37544 15C4.37673 14.3058 4.44538 13.6134 4.58044 12.9325C4.63699 12.6436 4.59009 12.344 4.44794 12.0862C3.86101 11.0187 3.6365 9.7895 3.80817 8.58344C3.97984 7.37738 4.53841 6.25965 5.39989 5.39831C6.26137 4.53697 7.3792 3.97858 8.58529 3.80711C9.79137 3.63564 11.0205 3.86035 12.0879 4.44746C12.346 4.5902 12.6462 4.63714 12.9354 4.57996C14.4759 4.27291 16.0653 4.31156 17.589 4.69312C19.1127 5.07468 20.5327 5.78964 21.7467 6.78644C22.9606 7.78323 23.9382 9.03701 24.609 10.4574C25.2797 11.8777 25.6269 13.4292 25.6254 15C25.6242 15.6941 25.5555 16.3865 25.4204 17.0675C25.3639 17.3563 25.4108 17.6559 25.5529 17.9137C26.0245 18.7701 26.2646 19.7346 26.2497 20.7121C26.2348 21.6895 25.9653 22.6463 25.4678 23.4878C24.9704 24.3294 24.2622 25.0268 23.413 25.5111C22.5638 25.9955 21.603 26.2502 20.6254 26.25Z" fill="#111111"/>
</symbol><symbol id="telegram" viewBox="0 0 30 30">
<path d="M27.8305 3.03482C27.4746 2.73876 27.0451 2.54475 26.5877 2.47343C26.1303 2.40212 25.6621 2.45616 25.233 2.62982L2.83177 11.6736C2.35284 11.8707 1.94516 12.2088 1.66282 12.643C1.38049 13.0772 1.23684 13.5869 1.25095 14.1046C1.26505 14.6224 1.43623 15.1236 1.74179 15.5417C2.04734 15.9599 2.47282 16.2753 2.96177 16.4461L7.49302 18.0223L10.018 26.3748C10.0526 26.4863 10.1027 26.5923 10.1668 26.6898C10.1768 26.7048 10.1905 26.7148 10.2005 26.7311C10.2742 26.8336 10.3631 26.9242 10.4643 26.9998C10.4925 27.0219 10.5217 27.0428 10.5518 27.0623C10.6702 27.1409 10.8013 27.1984 10.9393 27.2323L10.9555 27.2336L10.963 27.2373C11.0466 27.2541 11.1316 27.2625 11.2168 27.2623L11.2393 27.2586C11.3673 27.2564 11.4942 27.2345 11.6155 27.1936C11.6443 27.1836 11.668 27.1686 11.6955 27.1561C11.7863 27.1189 11.8723 27.071 11.9518 27.0136C12.0151 26.9598 12.0784 26.906 12.1418 26.8523L15.5193 23.1236L20.5568 27.0261C21.0002 27.3714 21.546 27.5592 22.108 27.5598C22.6971 27.5591 23.268 27.3559 23.725 26.9843C24.182 26.6126 24.4973 26.0951 24.618 25.5186L28.6968 5.49732C28.789 5.04689 28.7572 4.57986 28.6046 4.14613C28.452 3.71241 28.1845 3.32829 27.8305 3.03482ZM11.7118 18.4198C11.5387 18.5926 11.4204 18.8126 11.3718 19.0523L10.9843 20.9323L10.0043 17.6911L15.0855 15.0448L11.7118 18.4198ZM22.0893 25.0498L16.1355 20.4373C15.8864 20.2451 15.574 20.1538 15.2606 20.1816C14.9471 20.2094 14.6557 20.3542 14.4443 20.5873L13.3618 21.7811L13.7443 19.9223L22.598 11.0686C22.8081 10.8572 22.9357 10.5778 22.958 10.2806C22.9802 9.98343 22.8955 9.6881 22.7192 9.44785C22.5429 9.2076 22.2866 9.03824 21.9964 8.9703C21.7063 8.90237 21.4014 8.94032 21.1368 9.07732L8.43052 15.6923L3.77427 13.9886L26.248 4.99982L22.0893 25.0498Z" fill="#111111"/>
</symbol><symbol id="twitter" viewBox="0 0 30 30">
<path d="M28.7395 4.93729C28.7395 4.71666 28.681 4.49997 28.5701 4.30923C28.4592 4.1185 28.2998 3.96051 28.1081 3.85132C27.9164 3.74213 27.6992 3.68563 27.4786 3.68756C27.258 3.68948 27.0418 3.74977 26.852 3.86229C26.12 4.29831 25.3319 4.63223 24.5095 4.85479C23.3357 3.84763 21.8386 3.29655 20.292 3.30229C18.5954 3.30432 16.966 3.96558 15.7478 5.14644C14.5297 6.3273 13.8181 7.93534 13.7633 9.63104C10.418 9.0977 7.38609 7.3517 5.24575 4.72604C5.11678 4.56975 4.95216 4.44674 4.76574 4.36734C4.57932 4.28794 4.37655 4.25448 4.1745 4.26979C3.9725 4.28651 3.7776 4.35215 3.60665 4.46104C3.43569 4.56993 3.2938 4.7188 3.19325 4.89479C2.67765 5.79466 2.38155 6.80345 2.32899 7.83923C2.27643 8.87502 2.46889 9.9086 2.89075 10.856L2.88825 10.8573C2.69823 10.9741 2.54141 11.1377 2.43284 11.3325C2.32427 11.5273 2.26759 11.7468 2.26825 11.9698C2.26624 12.1533 2.27752 12.3367 2.302 12.5185C2.42965 14.0911 3.12654 15.5631 4.262 16.6585C4.18495 16.8054 4.13797 16.9662 4.1238 17.1315C4.10964 17.2967 4.12857 17.4632 4.1795 17.621C4.67447 19.1637 5.72732 20.4662 7.132 21.2735C5.70471 21.8253 4.16362 22.0177 2.6445 21.8335C2.36347 21.7986 2.07889 21.8601 1.83739 22.008C1.59588 22.1559 1.41176 22.3815 1.31517 22.6477C1.21859 22.9139 1.21527 23.205 1.30576 23.4734C1.39625 23.7417 1.57518 23.9714 1.81325 24.1248C4.42601 25.8073 7.4681 26.7017 10.5758 26.701C14.0998 26.7407 17.5382 25.6147 20.3561 23.498C23.1739 21.3814 25.2133 18.3929 26.157 14.9973C26.5982 13.5182 26.8234 11.9832 26.8258 10.4398L26.8245 10.1898C27.4772 9.48579 27.9828 8.65858 28.3116 7.75664C28.6405 6.8547 28.7859 5.89618 28.7395 4.93729ZM24.607 8.95229C24.4003 9.19631 24.2956 9.51056 24.3145 9.82979C24.327 10.036 24.3258 10.2435 24.3258 10.4398C24.3231 11.7438 24.132 13.0405 23.7583 14.2898C22.9878 17.1793 21.27 19.7267 18.8799 21.5239C16.4897 23.3212 13.5656 24.2643 10.5758 24.2023C9.50216 24.2025 8.43229 24.0762 7.38825 23.826C8.71989 23.3966 9.96495 22.7347 11.0658 21.871C11.2687 21.7115 11.4173 21.4929 11.4911 21.2455C11.5648 20.998 11.5602 20.7338 11.4777 20.4891C11.3952 20.2444 11.239 20.0313 11.0305 19.879C10.822 19.7267 10.5714 19.6427 10.3133 19.6385C9.27416 19.6223 8.28195 19.2033 7.54575 18.4698C7.73242 18.4348 7.91783 18.391 8.102 18.3385C8.37203 18.2618 8.60836 18.0964 8.77292 17.8689C8.93748 17.6415 9.02069 17.3652 9.00914 17.0848C8.99759 16.8043 8.89196 16.5358 8.70926 16.3227C8.52656 16.1095 8.27743 15.9641 8.002 15.9098C7.39886 15.7907 6.83133 15.534 6.34354 15.1598C5.85574 14.7856 5.46083 14.304 5.1895 13.7523C5.41544 13.7832 5.64283 13.8024 5.87075 13.8098C6.1416 13.8142 6.40684 13.7323 6.62799 13.5759C6.84915 13.4195 7.01474 13.1967 7.10075 12.9398C7.18331 12.6807 7.17917 12.4018 7.08894 12.1454C6.99871 11.8889 6.82732 11.6688 6.60075 11.5185C6.05067 11.1524 5.60001 10.6555 5.28914 10.0723C4.97827 9.48922 4.81691 8.8381 4.8195 8.17729C4.8195 8.09479 4.822 8.01104 4.827 7.92979C7.62883 10.5431 11.2631 12.0836 15.0895 12.2798C15.2827 12.2871 15.475 12.2504 15.652 12.1725C15.8289 12.0945 15.9858 11.9773 16.1107 11.8298C16.2345 11.6814 16.3222 11.5062 16.3669 11.3182C16.4116 11.1301 16.412 10.9343 16.3682 10.746C16.2967 10.4476 16.2602 10.1417 16.2595 9.83479C16.2608 8.76571 16.6861 7.7408 17.4421 6.98484C18.198 6.22889 19.2229 5.80361 20.292 5.80229C20.8422 5.80067 21.3867 5.91313 21.8913 6.13258C22.3958 6.35203 22.8493 6.67371 23.2232 7.07729C23.3674 7.23244 23.5489 7.34812 23.7504 7.41332C23.9519 7.47853 24.1668 7.49108 24.3745 7.44979C24.888 7.34998 25.3942 7.2155 25.8895 7.04729C25.5518 7.73832 25.1202 8.37938 24.607 8.95229Z" fill="#111111"/>
</symbol><symbol id="whatsapp" viewBox="0 0 30 30">
<path d="M20.75 17.5C20.5 17.375 18.875 16.625 18.625 16.5C18.375 16.375 18.125 16.375 17.875 16.625C17.625 16.875 17.125 17.625 16.875 17.875C16.75 18.125 16.5 18.125 16.25 18C15.375 17.625 14.5 17.125 13.75 16.5C13.125 15.875 12.5 15.125 12 14.375C11.875 14.125 12 13.875 12.125 13.75C12.25 13.625 12.375 13.375 12.625 13.25C12.75 13.125 12.875 12.875 12.875 12.75C13 12.625 13 12.375 12.875 12.25C12.75 12.125 12.125 10.625 11.875 10C11.75 9.125 11.5 9.125 11.25 9.125H10.625C10.375 9.125 10 9.375 9.875 9.5C9.125 10.25 8.75 11.125 8.75 12.125C8.875 13.25 9.25 14.375 10 15.375C11.375 17.375 13.125 19 15.25 20C15.875 20.25 16.375 20.5 17 20.625C17.625 20.875 18.25 20.875 19 20.75C19.875 20.625 20.625 20 21.125 19.25C21.375 18.75 21.375 18.25 21.25 17.75L20.75 17.5ZM23.875 6.125C19 1.25 11.125 1.25 6.25 6.125C2.25 10.125 1.5 16.25 4.25 21.125L2.5 27.5L9.125 25.75C11 26.75 13 27.25 15 27.25C21.875 27.25 27.375 21.75 27.375 14.875C27.5 11.625 26.125 8.5 23.875 6.125ZM20.5 23.625C18.875 24.625 17 25.25 15 25.25C13.125 25.25 11.375 24.75 9.75 23.875L9.375 23.625L5.5 24.625L6.5 20.875L6.25 20.5C3.25 15.5 4.75 9.25 9.625 6.125C14.5 3 20.75 4.625 23.75 9.375C26.75 14.25 25.375 20.625 20.5 23.625Z" fill="#111111"/>
</symbol></svg>