<svg width="225" height="197" fill="none" xmlns="http://www.w3.org/2000/svg"><path d="m66.109 89.152.611-5.89a11195.88 11195.88 0 0 1 2.653-25.09c.553-3.928 1.954-11.205 4.203-21.83.28-1.602.913-4.44 1.9-8.517 1.133-4.223 1.979-7.862 2.538-10.918.559-3.202.828-6.183.808-8.944A127.153 127.153 0 0 1 70.23 25.9l-5.605 8.76-9.701 15.113-9.69 16.638c-3.303 5.692-5.737 10.724-7.304 15.095-1.422 4.37-1.546 7.35-.372 8.941 2.35 3.326 11.866 2.894 28.55-1.296Zm1.621 13.287a231.416 231.416 0 0 1 2.09-12.66l-1.958.669-1 12.433.868-.442Zm8.647-40.393.855-2.405c-.577.586-1.01 1.098-1.297 1.536-.143.291-.214.51-.213.655l-.216.22.871-.006Zm-2.331 39.475-4.347 1.776a114.778 114.778 0 0 0-1.004 11.997c1.424-4.079 3.208-8.67 5.35-13.773Zm6.297-3.533c.139-.873.273-2.4.403-4.581.13-2.181.19-3.78.183-4.797l-4.717 10.934 4.13-1.556Zm7.186-1.142-5.003 1.562c.024 3.343.621 5.591 1.792 6.746-.012-1.744 1.058-4.514 3.21-8.308Zm7.609-2.889-6.524 2.227c-2.864 5.98-2.916 8.814-.157 8.504.726-.151 1.668-.521 2.826-1.111 2.01-3.502 3.295-6.709 3.855-9.62Zm1.512-1.973.865-.878 1.305-.445c.843-4.076-.905-4.645-5.244-1.707-.289.293-.65.586-1.084.88-1.008 1.316-2.014 2.921-3.017 4.818l7.175-2.668Zm.227 1.307c-.708 2.62-2.138 5.756-4.292 9.405l-2.164 2.196-2.172 1.105c1.306-.155 2.901-.675 4.784-1.56 2.44-4.233 4.23-8.097 5.367-11.593l-1.523.447Zm13.917-4.897-7.829 2.673c.44.578.376 1.741-.193 3.49-.424 1.601-.558 3.128-.403 4.58.156 1.453 1.108 2.463 2.856 3.032 3.447-5.693 5.304-10.285 5.569-13.775Zm33.48-12.885c1.685-8.297 2.576-15.642 2.676-22.038l-14.796 4.03a309.438 309.438 0 0 0-1.58 22.685l13.7-4.677Zm2.665-23.564c-.056-7.703-1.478-13.506-4.268-17.41l-7.601 3.98a271.133 271.133 0 0 0-2.709 17.46 313.59 313.59 0 0 1 14.578-4.03Zm4.079 21.553 2.392-.89c-.436.004-.946-.065-1.528-.206l-.864 1.096Zm-2.164 2.196-3.046.894-1.264 6.113c.569-1.748 2.005-4.084 4.31-7.007Zm6.773 2.131c-.282 1.165-.132 1.745.449 1.74a15.07 15.07 0 0 0 .423-1.746c.139-.873.208-1.455.206-1.746.143-.291.213-.655.21-1.091-.003-.436-.078-.726-.224-.87a1.428 1.428 0 0 0-.659-.65l-6.526 2.01a22.962 22.962 0 0 0-2.155 3.503 13.828 13.828 0 0 0-1.286 3.061c-.138 1.018.086 1.816.672 2.393.729.431 1.893.495 3.489.193 1.297-1.608 2.376-3.142 3.237-4.601.284-.874.643-1.604 1.074-2.188l2.165-2.196a15.29 15.29 0 0 1-1.075 2.188Zm53.022 6.376c7.769-10.956 4.165-16.889-10.811-17.798-8.287-.377-17.654.563-28.102 2.818 3.23 4.628 6.746 8.454 10.547 11.478 3.944 2.879 8.392 4.882 13.341 6.008 4.949.982 9.957.147 15.025-2.506ZM79.782 50.467l2.164-2.196-2.553 8.739 1.515-1.537c33.663-27.857 54.972-35.568 63.927-23.133C174.953 16.717 199.148 6.15 217.421.642l-2.164 2.195c-17.983 5.507-41.309 15.631-69.979 30.371 2.646 4.196 3.925 10.291 3.837 18.285 25.533-6.433 47.748-9.427 66.645-8.982l-2.164 2.195c-18.316-.449-39.805 2.322-64.47 8.313-.245 6.252-1.21 13.598-2.893 22.04l4.133-1.338 1.08-1.316 2.164-2.196c2.182.275 3.638.628 4.368 1.059l5.873-1.786c-.897-3.482-1.423-5.949-1.579-7.401l2.164-2.196a86.483 86.483 0 0 0 4.418 8.035c11.023-3.132 21.697-4.299 32.022-3.501 15.123 1.053 18.003 7.5 8.641 19.34l-2.164 2.196c-5.355 3.09-10.653 4.073-15.893 2.948-5.241-1.27-9.908-3.49-14-6.657-3.947-3.17-7.537-7.213-10.77-12.13 1.052 4.788 1.44 8.2 1.164 10.237l-2.164 2.196c-2.46 1.616-3.837 2.062-4.133 1.337-.297-.87-.596-2.103-.899-3.7-.303-1.741-.963-2.608-1.98-2.601l-.218.002c.861-1.46 1.655-2.192 2.382-2.198.727-.005 1.238.428 1.535 1.297a8.93 8.93 0 0 1 .457 2.831c.151.871.447 1.596.887 2.174.439.433 1.166.427 2.18-.016.131-2.036-.477-5.665-1.822-10.887l-5.003 1.562c.001.145-.277 1.891-.834 5.238-.581.15-1.23.808-1.948 1.976.58-.15 1.23-.663 1.951-1.54-.143.292-.213.656-.21 1.092l-2.165 2.195a4.125 4.125 0 0 1 .209-1.31c-.718 1.169-1.441 1.755-2.167 1.76-.291.003-.51-.141-.658-.43-.575.875-1.439 1.972-2.592 3.288l-2.164 2.196c-3.194.459-4.726-.33-4.595-2.365-1.553 6.406-3.467 13.105-5.742 20.098l-.216.219-1.948 1.976c3.556-10.78 6.246-20.61 8.072-29.489l-13.484 4.458a179.93 179.93 0 0 0 .361 19.835l.009 1.308.011 1.526c.148.435.225 1.016.231 1.743.004.581.08 1.017.227 1.306.147.29.295.652.444 1.087.148.435.295.652.441.651l1.089-.008.869-.442c-1.152 1.461-2.163 2.341-3.033 2.638l-.872.006c-.29.002-.51-.214-.658-.649a8.558 8.558 0 0 0-.444-1.087c-.148-.29-.224-.725-.228-1.307-.005-.726-.082-1.307-.23-1.742l-.011-1.526-.01-1.308a208.819 208.819 0 0 1-.372-21.362l-14.135 4.898c.731.576 2.045 1.439 3.943 2.588 2.043 1.148 3.723 2.371 5.041 3.67a15.267 15.267 0 0 1 3.299 4.118l-2.164 2.196a15.251 15.251 0 0 0-3.3-4.119c-1.171-1.154-2.778-2.305-4.821-3.453-2.044-1.293-3.358-2.229-3.944-2.806-.993 3.35-3.142 7.653-6.447 12.909l-2.164 2.196c-2.33-.565-3.574-1.791-3.733-3.679-.015-2.035.336-3.782 1.052-5.24.717-1.459.273-2.473-1.33-3.043-1.853 4.955-3.716 8.675-5.587 11.159l-2.165 2.196c-3.328 2.058-5.865 2.876-7.612 2.452-1.603-.569-2.7-1.579-3.292-3.028-.447-1.45-.68-3.483-.698-6.1l-5.001 1.781c-3 7.143-5.206 13.772-6.615 19.886l-2.164 2.196c-.045-6.249.344-12.647 1.17-19.193l-1.09.226c-.799 10.034-1.501 23.483-2.106 40.346-.131 2.036-.248 6.033-.35 11.993-.101 6.105-.215 10.538-.34 13.301-.125 2.907-.533 6.689-1.227 11.345-.547 4.655-1.389 8.875-2.524 12.662l-2.165 2.196c1.136-3.787 1.977-8.008 2.525-12.663.693-4.655 1.102-8.437 1.227-11.345.125-2.762.238-7.196.34-13.301.102-5.959.219-9.957.35-11.992.601-17.3 1.373-31.185 2.315-41.656l-9.784 3.558-12.829 4.671-14.566 5.555-11.957 4.664c-5.072 2.072-9.636 4.067-13.691 5.985l2.164-2.195c4.056-1.919 8.62-3.914 13.691-5.985l11.957-4.665 14.566-5.555 12.829-4.67 7.61-2.889c.411-3.346.817-7.564 1.216-12.653-17.843 4.634-28.012 5.216-30.508 1.746-1.174-1.59-.978-4.571.59-8.943 1.567-4.371 3.928-9.402 7.085-15.093l9.69-16.639 9.702-15.112 5.605-8.76c4.163-7.152 7.74-15.026 10.73-23.622l2.164-2.196a56.062 56.062 0 0 1-.365 9.813c-.412 3.346-1.254 7.566-2.525 12.662-1.272 4.951-2.05 8.081-2.33 9.391-2.25 10.626-3.65 17.903-4.203 21.831-.554 3.783-1.439 12.146-2.654 25.09l-.817 7.636 1.96-.45c1.402-6.986 3.38-14.994 5.93-24.023l-2.616.019.215-.438c.143-.292.576-.803 1.297-1.535l2.376-3.07 2.553-8.738Zm54.593-17.616 2.164-2.196-1.259 6.768 6.732-3.537c-9.093-11.416-29.965-3.636-62.617 23.342l-1.492 4.807a35.83 35.83 0 0 0 8.712-1.153c3.046-.894 5.366-1.71 6.959-2.448 1.739-.74 4.49-2.067 8.255-3.984l7.602-3.979 23.893-12.162 1.051-5.458ZM81.277 76.399l2.164-2.196c14.34-6.644 29.995-12.497 46.963-17.56a230.931 230.931 0 0 1 2.711-17.025l-25.848 13.049-7.385 3.76c-3.475 1.913-6.081 3.24-7.82 3.98-1.593.738-3.767 1.553-6.522 2.445-2.757.746-5.442 1.202-8.057 1.366-2.408 8.737-4.24 16.526-5.5 23.366l7.398-2.015-2.164 2.195-5.657 1.567a436.2 436.2 0 0 0-1.872 12.44l5-1.78 6.224-13.78 2.164-2.195c.156 1.452.1 3.778-.168 6.977-.268 3.054-.4 5.09-.392 6.107l5.872-2.004c1.148-2.043 2.082-3.503 2.802-4.38l2.165-2.196c5.78-4.547 8.395-4.711 7.844-.493a20.2 20.2 0 0 1-.636 2.403l.436-.003 8.697-3.115c-1.318-1.444-2.275-3.18-2.871-5.211l2.164-2.196c2.769.998 4.092 3.095 3.97 6.294l15.439-5.344a247.29 247.29 0 0 1 1.799-22.685c-17.694 5.214-34 11.29-48.92 18.229Zm77.755 20.15 2.165-2.196c6.384-1.499 14.66-2.576 24.829-3.23l-2.164 2.195c-10.169.655-18.446 1.732-24.83 3.231Zm-24.765 12.169c.578-.44 1.3-1.172 2.165-2.196.864-1.024 1.369-1.608 1.513-1.755l-1.948 1.976c-.288.293-.865.951-1.73 1.975Zm23.978-30.694.215-.437-.218.001.003.436Z" fill="#F33"/></svg>